<svg width="540" height="521" viewBox="0 0 540 521" fill="none" xmlns="http://www.w3.org/2000/svg">
<rect x="120.8" y="86.2242" width="310.002" height="334.163" rx="12" transform="rotate(-3 120.8 86.2242)" fill="#FE6A6A"/>
<g filter="url(#filter0_d_1_305)">
<rect x="120" y="80.3428" width="300" height="310" rx="12" fill="white"/>
</g>
<path d="M166.866 302.098C165.961 302.098 165.135 301.888 164.388 301.468C163.642 301.039 163.049 300.446 162.61 299.69C162.181 298.925 161.966 298.066 161.966 297.114C161.966 296.162 162.181 295.308 162.61 294.552C163.049 293.787 163.642 293.194 164.388 292.774C165.135 292.345 165.961 292.13 166.866 292.13C167.781 292.13 168.612 292.345 169.358 292.774C170.105 293.194 170.693 293.782 171.122 294.538C171.552 295.294 171.766 296.153 171.766 297.114C171.766 298.075 171.552 298.934 171.122 299.69C170.693 300.446 170.105 301.039 169.358 301.468C168.612 301.888 167.781 302.098 166.866 302.098ZM166.866 300.992C167.548 300.992 168.159 300.833 168.7 300.516C169.251 300.199 169.68 299.746 169.988 299.158C170.306 298.57 170.464 297.889 170.464 297.114C170.464 296.33 170.306 295.649 169.988 295.07C169.68 294.482 169.256 294.029 168.714 293.712C168.173 293.395 167.557 293.236 166.866 293.236C166.176 293.236 165.56 293.395 165.018 293.712C164.477 294.029 164.048 294.482 163.73 295.07C163.422 295.649 163.268 296.33 163.268 297.114C163.268 297.889 163.422 298.57 163.73 299.158C164.048 299.746 164.477 300.199 165.018 300.516C165.569 300.833 166.185 300.992 166.866 300.992ZM174.722 295.574C174.946 295.135 175.263 294.795 175.674 294.552C176.094 294.309 176.603 294.188 177.2 294.188V295.504H176.864C175.436 295.504 174.722 296.279 174.722 297.828V302H173.448V294.328H174.722V295.574ZM178.195 298.136C178.195 297.352 178.353 296.666 178.671 296.078C178.988 295.481 179.422 295.019 179.973 294.692C180.533 294.365 181.158 294.202 181.849 294.202C182.446 294.202 183.001 294.342 183.515 294.622C184.028 294.893 184.42 295.252 184.691 295.7V291.64H185.979V302H184.691V300.558C184.439 301.015 184.065 301.393 183.571 301.692C183.076 301.981 182.497 302.126 181.835 302.126C181.153 302.126 180.533 301.958 179.973 301.622C179.422 301.286 178.988 300.815 178.671 300.208C178.353 299.601 178.195 298.911 178.195 298.136ZM184.691 298.15C184.691 297.571 184.574 297.067 184.341 296.638C184.107 296.209 183.79 295.882 183.389 295.658C182.997 295.425 182.563 295.308 182.087 295.308C181.611 295.308 181.177 295.42 180.785 295.644C180.393 295.868 180.08 296.195 179.847 296.624C179.613 297.053 179.497 297.557 179.497 298.136C179.497 298.724 179.613 299.237 179.847 299.676C180.08 300.105 180.393 300.437 180.785 300.67C181.177 300.894 181.611 301.006 182.087 301.006C182.563 301.006 182.997 300.894 183.389 300.67C183.79 300.437 184.107 300.105 184.341 299.676C184.574 299.237 184.691 298.729 184.691 298.15ZM195.132 297.87C195.132 298.113 195.118 298.369 195.09 298.64H188.958C189.004 299.396 189.261 299.989 189.728 300.418C190.204 300.838 190.778 301.048 191.45 301.048C192 301.048 192.458 300.922 192.822 300.67C193.195 300.409 193.456 300.063 193.606 299.634H194.978C194.772 300.371 194.362 300.973 193.746 301.44C193.13 301.897 192.364 302.126 191.45 302.126C190.722 302.126 190.068 301.963 189.49 301.636C188.92 301.309 188.472 300.847 188.146 300.25C187.819 299.643 187.656 298.943 187.656 298.15C187.656 297.357 187.814 296.661 188.132 296.064C188.449 295.467 188.892 295.009 189.462 294.692C190.04 294.365 190.703 294.202 191.45 294.202C192.178 294.202 192.822 294.361 193.382 294.678C193.942 294.995 194.371 295.434 194.67 295.994C194.978 296.545 195.132 297.17 195.132 297.87ZM193.816 297.604C193.816 297.119 193.708 296.703 193.494 296.358C193.279 296.003 192.985 295.737 192.612 295.56C192.248 295.373 191.842 295.28 191.394 295.28C190.75 295.28 190.199 295.485 189.742 295.896C189.294 296.307 189.037 296.876 188.972 297.604H193.816ZM198.087 295.574C198.311 295.135 198.629 294.795 199.039 294.552C199.459 294.309 199.968 294.188 200.565 294.188V295.504H200.229C198.801 295.504 198.087 296.279 198.087 297.828V302H196.813V294.328H198.087V295.574ZM206.426 293.082C206.184 293.082 205.978 292.998 205.81 292.83C205.642 292.662 205.558 292.457 205.558 292.214C205.558 291.971 205.642 291.766 205.81 291.598C205.978 291.43 206.184 291.346 206.426 291.346C206.66 291.346 206.856 291.43 207.014 291.598C207.182 291.766 207.266 291.971 207.266 292.214C207.266 292.457 207.182 292.662 207.014 292.83C206.856 292.998 206.66 293.082 206.426 293.082ZM207.042 294.328V302H205.768V294.328H207.042ZM212.952 294.188C213.885 294.188 214.641 294.473 215.22 295.042C215.798 295.602 216.088 296.414 216.088 297.478V302H214.828V297.66C214.828 296.895 214.636 296.311 214.254 295.91C213.871 295.499 213.348 295.294 212.686 295.294C212.014 295.294 211.477 295.504 211.076 295.924C210.684 296.344 210.488 296.955 210.488 297.758V302H209.214V294.328H210.488V295.42C210.74 295.028 211.08 294.725 211.51 294.51C211.948 294.295 212.429 294.188 212.952 294.188ZM221.425 298.136C221.425 297.352 221.584 296.666 221.901 296.078C222.219 295.481 222.653 295.019 223.203 294.692C223.763 294.365 224.384 294.202 225.065 294.202C225.737 294.202 226.321 294.347 226.815 294.636C227.31 294.925 227.679 295.289 227.921 295.728V294.328H229.209V302H227.921V300.572C227.669 301.02 227.291 301.393 226.787 301.692C226.293 301.981 225.714 302.126 225.051 302.126C224.37 302.126 223.754 301.958 223.203 301.622C222.653 301.286 222.219 300.815 221.901 300.208C221.584 299.601 221.425 298.911 221.425 298.136ZM227.921 298.15C227.921 297.571 227.805 297.067 227.571 296.638C227.338 296.209 227.021 295.882 226.619 295.658C226.227 295.425 225.793 295.308 225.317 295.308C224.841 295.308 224.407 295.42 224.015 295.644C223.623 295.868 223.311 296.195 223.077 296.624C222.844 297.053 222.727 297.557 222.727 298.136C222.727 298.724 222.844 299.237 223.077 299.676C223.311 300.105 223.623 300.437 224.015 300.67C224.407 300.894 224.841 301.006 225.317 301.006C225.793 301.006 226.227 300.894 226.619 300.67C227.021 300.437 227.338 300.105 227.571 299.676C227.805 299.237 227.921 298.729 227.921 298.15ZM238.903 294.188C239.481 294.188 240.004 294.314 240.471 294.566C240.937 294.809 241.301 295.177 241.563 295.672C241.833 296.167 241.969 296.769 241.969 297.478V302H240.709V297.66C240.709 296.895 240.517 296.311 240.135 295.91C239.752 295.499 239.229 295.294 238.567 295.294C237.895 295.294 237.358 295.504 236.957 295.924C236.565 296.344 236.369 296.955 236.369 297.758V302H235.095V291.64H236.369V295.42C236.621 295.028 236.966 294.725 237.405 294.51C237.853 294.295 238.352 294.188 238.903 294.188ZM243.574 298.136C243.574 297.352 243.732 296.666 244.05 296.078C244.367 295.481 244.801 295.019 245.352 294.692C245.912 294.365 246.532 294.202 247.214 294.202C247.886 294.202 248.469 294.347 248.964 294.636C249.458 294.925 249.827 295.289 250.07 295.728V294.328H251.358V302H250.07V300.572C249.818 301.02 249.44 301.393 248.936 301.692C248.441 301.981 247.862 302.126 247.2 302.126C246.518 302.126 245.902 301.958 245.352 301.622C244.801 301.286 244.367 300.815 244.05 300.208C243.732 299.601 243.574 298.911 243.574 298.136ZM250.07 298.15C250.07 297.571 249.953 297.067 249.72 296.638C249.486 296.209 249.169 295.882 248.768 295.658C248.376 295.425 247.942 295.308 247.466 295.308C246.99 295.308 246.556 295.42 246.164 295.644C245.772 295.868 245.459 296.195 245.226 296.624C244.992 297.053 244.876 297.557 244.876 298.136C244.876 298.724 244.992 299.237 245.226 299.676C245.459 300.105 245.772 300.437 246.164 300.67C246.556 300.894 246.99 301.006 247.466 301.006C247.942 301.006 248.376 300.894 248.768 300.67C249.169 300.437 249.486 300.105 249.72 299.676C249.953 299.237 250.07 298.729 250.07 298.15ZM257.249 294.188C258.182 294.188 258.938 294.473 259.517 295.042C260.095 295.602 260.385 296.414 260.385 297.478V302H259.125V297.66C259.125 296.895 258.933 296.311 258.551 295.91C258.168 295.499 257.645 295.294 256.983 295.294C256.311 295.294 255.774 295.504 255.373 295.924C254.981 296.344 254.785 296.955 254.785 297.758V302H253.511V294.328H254.785V295.42C255.037 295.028 255.377 294.725 255.807 294.51C256.245 294.295 256.726 294.188 257.249 294.188ZM261.99 298.136C261.99 297.352 262.148 296.666 262.466 296.078C262.783 295.481 263.217 295.019 263.768 294.692C264.328 294.365 264.953 294.202 265.644 294.202C266.241 294.202 266.796 294.342 267.31 294.622C267.823 294.893 268.215 295.252 268.486 295.7V291.64H269.774V302H268.486V300.558C268.234 301.015 267.86 301.393 267.366 301.692C266.871 301.981 266.292 302.126 265.63 302.126C264.948 302.126 264.328 301.958 263.768 301.622C263.217 301.286 262.783 300.815 262.466 300.208C262.148 299.601 261.99 298.911 261.99 298.136ZM268.486 298.15C268.486 297.571 268.369 297.067 268.136 296.638C267.902 296.209 267.585 295.882 267.184 295.658C266.792 295.425 266.358 295.308 265.882 295.308C265.406 295.308 264.972 295.42 264.58 295.644C264.188 295.868 263.875 296.195 263.642 296.624C263.408 297.053 263.292 297.557 263.292 298.136C263.292 298.724 263.408 299.237 263.642 299.676C263.875 300.105 264.188 300.437 264.58 300.67C264.972 300.894 265.406 301.006 265.882 301.006C266.358 301.006 266.792 300.894 267.184 300.67C267.585 300.437 267.902 300.105 268.136 299.676C268.369 299.237 268.486 298.729 268.486 298.15ZM278.535 294.328L273.915 305.612H272.599L274.111 301.916L271.017 294.328H272.431L274.839 300.544L277.219 294.328H278.535ZM293.768 294.328L291.374 302H290.058L288.21 295.91L286.362 302H285.046L282.638 294.328H283.94L285.704 300.768L287.608 294.328H288.91L290.772 300.782L292.508 294.328H293.768ZM294.556 298.136C294.556 297.352 294.715 296.666 295.032 296.078C295.349 295.481 295.783 295.019 296.334 294.692C296.894 294.365 297.515 294.202 298.196 294.202C298.868 294.202 299.451 294.347 299.946 294.636C300.441 294.925 300.809 295.289 301.052 295.728V294.328H302.34V302H301.052V300.572C300.8 301.02 300.422 301.393 299.918 301.692C299.423 301.981 298.845 302.126 298.182 302.126C297.501 302.126 296.885 301.958 296.334 301.622C295.783 301.286 295.349 300.815 295.032 300.208C294.715 299.601 294.556 298.911 294.556 298.136ZM301.052 298.15C301.052 297.571 300.935 297.067 300.702 296.638C300.469 296.209 300.151 295.882 299.75 295.658C299.358 295.425 298.924 295.308 298.448 295.308C297.972 295.308 297.538 295.42 297.146 295.644C296.754 295.868 296.441 296.195 296.208 296.624C295.975 297.053 295.858 297.557 295.858 298.136C295.858 298.724 295.975 299.237 296.208 299.676C296.441 300.105 296.754 300.437 297.146 300.67C297.538 300.894 297.972 301.006 298.448 301.006C298.924 301.006 299.358 300.894 299.75 300.67C300.151 300.437 300.469 300.105 300.702 299.676C300.935 299.237 301.052 298.729 301.052 298.15ZM311.101 294.328L306.481 305.612H305.165L306.677 301.916L303.583 294.328H304.997L307.405 300.544L309.785 294.328H311.101ZM322.918 294.328V302H321.644V300.866C321.401 301.258 321.061 301.566 320.622 301.79C320.193 302.005 319.717 302.112 319.194 302.112C318.597 302.112 318.06 301.991 317.584 301.748C317.108 301.496 316.73 301.123 316.45 300.628C316.179 300.133 316.044 299.531 316.044 298.822V294.328H317.304V298.654C317.304 299.41 317.495 299.993 317.878 300.404C318.261 300.805 318.783 301.006 319.446 301.006C320.127 301.006 320.664 300.796 321.056 300.376C321.448 299.956 321.644 299.345 321.644 298.542V294.328H322.918ZM327.785 302.126C327.197 302.126 326.67 302.028 326.203 301.832C325.737 301.627 325.368 301.347 325.097 300.992C324.827 300.628 324.677 300.213 324.649 299.746H325.965C326.003 300.129 326.18 300.441 326.497 300.684C326.824 300.927 327.249 301.048 327.771 301.048C328.257 301.048 328.639 300.941 328.919 300.726C329.199 300.511 329.339 300.241 329.339 299.914C329.339 299.578 329.19 299.331 328.891 299.172C328.593 299.004 328.131 298.841 327.505 298.682C326.936 298.533 326.469 298.383 326.105 298.234C325.751 298.075 325.443 297.847 325.181 297.548C324.929 297.24 324.803 296.839 324.803 296.344C324.803 295.952 324.92 295.593 325.153 295.266C325.387 294.939 325.718 294.683 326.147 294.496C326.577 294.3 327.067 294.202 327.617 294.202C328.467 294.202 329.153 294.417 329.675 294.846C330.198 295.275 330.478 295.863 330.515 296.61H329.241C329.213 296.209 329.05 295.887 328.751 295.644C328.462 295.401 328.07 295.28 327.575 295.28C327.118 295.28 326.754 295.378 326.483 295.574C326.213 295.77 326.077 296.027 326.077 296.344C326.077 296.596 326.157 296.806 326.315 296.974C326.483 297.133 326.689 297.263 326.931 297.366C327.183 297.459 327.529 297.567 327.967 297.688C328.518 297.837 328.966 297.987 329.311 298.136C329.657 298.276 329.951 298.491 330.193 298.78C330.445 299.069 330.576 299.447 330.585 299.914C330.585 300.334 330.469 300.712 330.235 301.048C330.002 301.384 329.671 301.65 329.241 301.846C328.821 302.033 328.336 302.126 327.785 302.126ZM333.042 293.082C332.799 293.082 332.594 292.998 332.426 292.83C332.258 292.662 332.174 292.457 332.174 292.214C332.174 291.971 332.258 291.766 332.426 291.598C332.594 291.43 332.799 291.346 333.042 291.346C333.275 291.346 333.471 291.43 333.63 291.598C333.798 291.766 333.882 291.971 333.882 292.214C333.882 292.457 333.798 292.662 333.63 292.83C333.471 292.998 333.275 293.082 333.042 293.082ZM333.658 294.328V302H332.384V294.328H333.658ZM339.567 294.188C340.5 294.188 341.256 294.473 341.835 295.042C342.414 295.602 342.703 296.414 342.703 297.478V302H341.443V297.66C341.443 296.895 341.252 296.311 340.869 295.91C340.486 295.499 339.964 295.294 339.301 295.294C338.629 295.294 338.092 295.504 337.691 295.924C337.299 296.344 337.103 296.955 337.103 297.758V302H335.829V294.328H337.103V295.42C337.355 295.028 337.696 294.725 338.125 294.51C338.564 294.295 339.044 294.188 339.567 294.188ZM347.948 294.202C348.611 294.202 349.189 294.347 349.684 294.636C350.188 294.925 350.561 295.289 350.804 295.728V294.328H352.092V302.168C352.092 302.868 351.943 303.489 351.644 304.03C351.345 304.581 350.916 305.01 350.356 305.318C349.805 305.626 349.161 305.78 348.424 305.78C347.416 305.78 346.576 305.542 345.904 305.066C345.232 304.59 344.835 303.941 344.714 303.12H345.974C346.114 303.587 346.403 303.96 346.842 304.24C347.281 304.529 347.808 304.674 348.424 304.674C349.124 304.674 349.693 304.455 350.132 304.016C350.58 303.577 350.804 302.961 350.804 302.168V300.558C350.552 301.006 350.179 301.379 349.684 301.678C349.189 301.977 348.611 302.126 347.948 302.126C347.267 302.126 346.646 301.958 346.086 301.622C345.535 301.286 345.101 300.815 344.784 300.208C344.467 299.601 344.308 298.911 344.308 298.136C344.308 297.352 344.467 296.666 344.784 296.078C345.101 295.481 345.535 295.019 346.086 294.692C346.646 294.365 347.267 294.202 347.948 294.202ZM350.804 298.15C350.804 297.571 350.687 297.067 350.454 296.638C350.221 296.209 349.903 295.882 349.502 295.658C349.11 295.425 348.676 295.308 348.2 295.308C347.724 295.308 347.29 295.42 346.898 295.644C346.506 295.868 346.193 296.195 345.96 296.624C345.727 297.053 345.61 297.557 345.61 298.136C345.61 298.724 345.727 299.237 345.96 299.676C346.193 300.105 346.506 300.437 346.898 300.67C347.29 300.894 347.724 301.006 348.2 301.006C348.676 301.006 349.11 300.894 349.502 300.67C349.903 300.437 350.221 300.105 350.454 299.676C350.687 299.237 350.804 298.729 350.804 298.15ZM359.531 295.378V299.9C359.531 300.273 359.611 300.539 359.769 300.698C359.928 300.847 360.203 300.922 360.595 300.922H361.533V302H360.385C359.676 302 359.144 301.837 358.789 301.51C358.435 301.183 358.257 300.647 358.257 299.9V295.378H357.263V294.328H358.257V292.396H359.531V294.328H361.533V295.378H359.531ZM366.885 294.188C367.464 294.188 367.986 294.314 368.453 294.566C368.92 294.809 369.284 295.177 369.545 295.672C369.816 296.167 369.951 296.769 369.951 297.478V302H368.691V297.66C368.691 296.895 368.5 296.311 368.117 295.91C367.734 295.499 367.212 295.294 366.549 295.294C365.877 295.294 365.34 295.504 364.939 295.924C364.547 296.344 364.351 296.955 364.351 297.758V302H363.077V291.64H364.351V295.42C364.603 295.028 364.948 294.725 365.387 294.51C365.835 294.295 366.334 294.188 366.885 294.188ZM379.032 297.87C379.032 298.113 379.018 298.369 378.99 298.64H372.858C372.905 299.396 373.161 299.989 373.628 300.418C374.104 300.838 374.678 301.048 375.35 301.048C375.901 301.048 376.358 300.922 376.722 300.67C377.095 300.409 377.357 300.063 377.506 299.634H378.878C378.673 300.371 378.262 300.973 377.646 301.44C377.03 301.897 376.265 302.126 375.35 302.126C374.622 302.126 373.969 301.963 373.39 301.636C372.821 301.309 372.373 300.847 372.046 300.25C371.719 299.643 371.556 298.943 371.556 298.15C371.556 297.357 371.715 296.661 372.032 296.064C372.349 295.467 372.793 295.009 373.362 294.692C373.941 294.365 374.603 294.202 375.35 294.202C376.078 294.202 376.722 294.361 377.282 294.678C377.842 294.995 378.271 295.434 378.57 295.994C378.878 296.545 379.032 297.17 379.032 297.87ZM377.716 297.604C377.716 297.119 377.609 296.703 377.394 296.358C377.179 296.003 376.885 295.737 376.512 295.56C376.148 295.373 375.742 295.28 375.294 295.28C374.65 295.28 374.099 295.485 373.642 295.896C373.194 296.307 372.937 296.876 372.872 297.604H377.716ZM183.215 320.378H181.605V327H180.331V320.378H179.337V319.328H180.331V318.782C180.331 317.923 180.55 317.298 180.989 316.906C181.437 316.505 182.151 316.304 183.131 316.304V317.368C182.571 317.368 182.174 317.48 181.941 317.704C181.717 317.919 181.605 318.278 181.605 318.782V319.328H183.215V320.378ZM185.974 320.574C186.198 320.135 186.515 319.795 186.926 319.552C187.346 319.309 187.855 319.188 188.452 319.188V320.504H188.116C186.688 320.504 185.974 321.279 185.974 322.828V327H184.7V319.328H185.974V320.574ZM196.923 322.87C196.923 323.113 196.909 323.369 196.881 323.64H190.749C190.795 324.396 191.052 324.989 191.519 325.418C191.995 325.838 192.569 326.048 193.241 326.048C193.791 326.048 194.249 325.922 194.613 325.67C194.986 325.409 195.247 325.063 195.397 324.634H196.769C196.563 325.371 196.153 325.973 195.537 326.44C194.921 326.897 194.155 327.126 193.241 327.126C192.513 327.126 191.859 326.963 191.281 326.636C190.711 326.309 190.263 325.847 189.937 325.25C189.61 324.643 189.447 323.943 189.447 323.15C189.447 322.357 189.605 321.661 189.923 321.064C190.24 320.467 190.683 320.009 191.253 319.692C191.831 319.365 192.494 319.202 193.241 319.202C193.969 319.202 194.613 319.361 195.173 319.678C195.733 319.995 196.162 320.434 196.461 320.994C196.769 321.545 196.923 322.17 196.923 322.87ZM195.607 322.604C195.607 322.119 195.499 321.703 195.285 321.358C195.07 321.003 194.776 320.737 194.403 320.56C194.039 320.373 193.633 320.28 193.185 320.28C192.541 320.28 191.99 320.485 191.533 320.896C191.085 321.307 190.828 321.876 190.763 322.604H195.607ZM201.32 327.126C200.732 327.126 200.205 327.028 199.738 326.832C199.272 326.627 198.903 326.347 198.632 325.992C198.362 325.628 198.212 325.213 198.184 324.746H199.5C199.538 325.129 199.715 325.441 200.032 325.684C200.359 325.927 200.784 326.048 201.306 326.048C201.792 326.048 202.174 325.941 202.454 325.726C202.734 325.511 202.874 325.241 202.874 324.914C202.874 324.578 202.725 324.331 202.426 324.172C202.128 324.004 201.666 323.841 201.04 323.682C200.471 323.533 200.004 323.383 199.64 323.234C199.286 323.075 198.978 322.847 198.716 322.548C198.464 322.24 198.338 321.839 198.338 321.344C198.338 320.952 198.455 320.593 198.688 320.266C198.922 319.939 199.253 319.683 199.682 319.496C200.112 319.3 200.602 319.202 201.152 319.202C202.002 319.202 202.688 319.417 203.21 319.846C203.733 320.275 204.013 320.863 204.05 321.61H202.776C202.748 321.209 202.585 320.887 202.286 320.644C201.997 320.401 201.605 320.28 201.11 320.28C200.653 320.28 200.289 320.378 200.018 320.574C199.748 320.77 199.612 321.027 199.612 321.344C199.612 321.596 199.692 321.806 199.85 321.974C200.018 322.133 200.224 322.263 200.466 322.366C200.718 322.459 201.064 322.567 201.502 322.688C202.053 322.837 202.501 322.987 202.846 323.136C203.192 323.276 203.486 323.491 203.728 323.78C203.98 324.069 204.111 324.447 204.12 324.914C204.12 325.334 204.004 325.712 203.77 326.048C203.537 326.384 203.206 326.65 202.776 326.846C202.356 327.033 201.871 327.126 201.32 327.126ZM209.727 319.188C210.305 319.188 210.828 319.314 211.295 319.566C211.761 319.809 212.125 320.177 212.387 320.672C212.657 321.167 212.793 321.769 212.793 322.478V327H211.533V322.66C211.533 321.895 211.341 321.311 210.959 320.91C210.576 320.499 210.053 320.294 209.391 320.294C208.719 320.294 208.182 320.504 207.781 320.924C207.389 321.344 207.193 321.955 207.193 322.758V327H205.919V316.64H207.193V320.42C207.445 320.028 207.79 319.725 208.229 319.51C208.677 319.295 209.176 319.188 209.727 319.188ZM218.612 319.188C219.545 319.188 220.301 319.473 220.88 320.042C221.459 320.602 221.748 321.414 221.748 322.478V327H220.488V322.66C220.488 321.895 220.297 321.311 219.914 320.91C219.531 320.499 219.009 320.294 218.346 320.294C217.674 320.294 217.137 320.504 216.736 320.924C216.344 321.344 216.148 321.955 216.148 322.758V327H214.874V319.328H216.148V320.42C216.4 320.028 216.741 319.725 217.17 319.51C217.609 319.295 218.089 319.188 218.612 319.188ZM230.829 322.87C230.829 323.113 230.815 323.369 230.787 323.64H224.655C224.702 324.396 224.958 324.989 225.425 325.418C225.901 325.838 226.475 326.048 227.147 326.048C227.698 326.048 228.155 325.922 228.519 325.67C228.892 325.409 229.154 325.063 229.303 324.634H230.675C230.47 325.371 230.059 325.973 229.443 326.44C228.827 326.897 228.062 327.126 227.147 327.126C226.419 327.126 225.766 326.963 225.187 326.636C224.618 326.309 224.17 325.847 223.843 325.25C223.516 324.643 223.353 323.943 223.353 323.15C223.353 322.357 223.512 321.661 223.829 321.064C224.146 320.467 224.59 320.009 225.159 319.692C225.738 319.365 226.4 319.202 227.147 319.202C227.875 319.202 228.519 319.361 229.079 319.678C229.639 319.995 230.068 320.434 230.367 320.994C230.675 321.545 230.829 322.17 230.829 322.87ZM229.513 322.604C229.513 322.119 229.406 321.703 229.191 321.358C228.976 321.003 228.682 320.737 228.309 320.56C227.945 320.373 227.539 320.28 227.091 320.28C226.447 320.28 225.896 320.485 225.439 320.896C224.991 321.307 224.734 321.876 224.669 322.604H229.513ZM235.227 327.126C234.639 327.126 234.111 327.028 233.645 326.832C233.178 326.627 232.809 326.347 232.539 325.992C232.268 325.628 232.119 325.213 232.091 324.746H233.407C233.444 325.129 233.621 325.441 233.939 325.684C234.265 325.927 234.69 326.048 235.213 326.048C235.698 326.048 236.081 325.941 236.361 325.726C236.641 325.511 236.781 325.241 236.781 324.914C236.781 324.578 236.631 324.331 236.333 324.172C236.034 324.004 235.572 323.841 234.947 323.682C234.377 323.533 233.911 323.383 233.547 323.234C233.192 323.075 232.884 322.847 232.623 322.548C232.371 322.24 232.245 321.839 232.245 321.344C232.245 320.952 232.361 320.593 232.595 320.266C232.828 319.939 233.159 319.683 233.589 319.496C234.018 319.3 234.508 319.202 235.059 319.202C235.908 319.202 236.594 319.417 237.117 319.846C237.639 320.275 237.919 320.863 237.957 321.61H236.683C236.655 321.209 236.491 320.887 236.193 320.644C235.903 320.401 235.511 320.28 235.017 320.28C234.559 320.28 234.195 320.378 233.925 320.574C233.654 320.77 233.519 321.027 233.519 321.344C233.519 321.596 233.598 321.806 233.757 321.974C233.925 322.133 234.13 322.263 234.373 322.366C234.625 322.459 234.97 322.567 235.409 322.688C235.959 322.837 236.407 322.987 236.753 323.136C237.098 323.276 237.392 323.491 237.635 323.78C237.887 324.069 238.017 324.447 238.027 324.914C238.027 325.334 237.91 325.712 237.677 326.048C237.443 326.384 237.112 326.65 236.683 326.846C236.263 327.033 235.777 327.126 235.227 327.126ZM242.541 327.126C241.953 327.126 241.426 327.028 240.959 326.832C240.492 326.627 240.124 326.347 239.853 325.992C239.582 325.628 239.433 325.213 239.405 324.746H240.721C240.758 325.129 240.936 325.441 241.253 325.684C241.58 325.927 242.004 326.048 242.527 326.048C243.012 326.048 243.395 325.941 243.675 325.726C243.955 325.511 244.095 325.241 244.095 324.914C244.095 324.578 243.946 324.331 243.647 324.172C243.348 324.004 242.886 323.841 242.261 323.682C241.692 323.533 241.225 323.383 240.861 323.234C240.506 323.075 240.198 322.847 239.937 322.548C239.685 322.24 239.559 321.839 239.559 321.344C239.559 320.952 239.676 320.593 239.909 320.266C240.142 319.939 240.474 319.683 240.903 319.496C241.332 319.3 241.822 319.202 242.373 319.202C243.222 319.202 243.908 319.417 244.431 319.846C244.954 320.275 245.234 320.863 245.271 321.61H243.997C243.969 321.209 243.806 320.887 243.507 320.644C243.218 320.401 242.826 320.28 242.331 320.28C241.874 320.28 241.51 320.378 241.239 320.574C240.968 320.77 240.833 321.027 240.833 321.344C240.833 321.596 240.912 321.806 241.071 321.974C241.239 322.133 241.444 322.263 241.687 322.366C241.939 322.459 242.284 322.567 242.723 322.688C243.274 322.837 243.722 322.987 244.067 323.136C244.412 323.276 244.706 323.491 244.949 323.78C245.201 324.069 245.332 324.447 245.341 324.914C245.341 325.334 245.224 325.712 244.991 326.048C244.758 326.384 244.426 326.65 243.997 326.846C243.577 327.033 243.092 327.126 242.541 327.126ZM254.218 327.126C253.499 327.126 252.846 326.963 252.258 326.636C251.679 326.309 251.222 325.847 250.886 325.25C250.559 324.643 250.396 323.943 250.396 323.15C250.396 322.366 250.564 321.675 250.9 321.078C251.245 320.471 251.712 320.009 252.3 319.692C252.888 319.365 253.546 319.202 254.274 319.202C255.002 319.202 255.66 319.365 256.248 319.692C256.836 320.009 257.298 320.467 257.634 321.064C257.979 321.661 258.152 322.357 258.152 323.15C258.152 323.943 257.975 324.643 257.62 325.25C257.275 325.847 256.803 326.309 256.206 326.636C255.609 326.963 254.946 327.126 254.218 327.126ZM254.218 326.006C254.675 326.006 255.105 325.899 255.506 325.684C255.907 325.469 256.229 325.147 256.472 324.718C256.724 324.289 256.85 323.766 256.85 323.15C256.85 322.534 256.729 322.011 256.486 321.582C256.243 321.153 255.926 320.835 255.534 320.63C255.142 320.415 254.717 320.308 254.26 320.308C253.793 320.308 253.364 320.415 252.972 320.63C252.589 320.835 252.281 321.153 252.048 321.582C251.815 322.011 251.698 322.534 251.698 323.15C251.698 323.775 251.81 324.303 252.034 324.732C252.267 325.161 252.575 325.483 252.958 325.698C253.341 325.903 253.761 326.006 254.218 326.006ZM262.949 320.378H261.339V327H260.065V320.378H259.071V319.328H260.065V318.782C260.065 317.923 260.284 317.298 260.723 316.906C261.171 316.505 261.885 316.304 262.865 316.304V317.368C262.305 317.368 261.908 317.48 261.675 317.704C261.451 317.919 261.339 318.278 261.339 318.782V319.328H262.949V320.378ZM269.721 320.378V324.9C269.721 325.273 269.8 325.539 269.959 325.698C270.118 325.847 270.393 325.922 270.785 325.922H271.723V327H270.575C269.866 327 269.334 326.837 268.979 326.51C268.624 326.183 268.447 325.647 268.447 324.9V320.378H267.453V319.328H268.447V317.396H269.721V319.328H271.723V320.378H269.721ZM277.074 319.188C277.653 319.188 278.176 319.314 278.642 319.566C279.109 319.809 279.473 320.177 279.734 320.672C280.005 321.167 280.14 321.769 280.14 322.478V327H278.88V322.66C278.88 321.895 278.689 321.311 278.306 320.91C277.924 320.499 277.401 320.294 276.738 320.294C276.066 320.294 275.53 320.504 275.128 320.924C274.736 321.344 274.54 321.955 274.54 322.758V327H273.266V316.64H274.54V320.42C274.792 320.028 275.138 319.725 275.576 319.51C276.024 319.295 276.524 319.188 277.074 319.188ZM289.222 322.87C289.222 323.113 289.208 323.369 289.18 323.64H283.048C283.094 324.396 283.351 324.989 283.818 325.418C284.294 325.838 284.868 326.048 285.54 326.048C286.09 326.048 286.548 325.922 286.912 325.67C287.285 325.409 287.546 325.063 287.696 324.634H289.068C288.862 325.371 288.452 325.973 287.836 326.44C287.22 326.897 286.454 327.126 285.54 327.126C284.812 327.126 284.158 326.963 283.58 326.636C283.01 326.309 282.562 325.847 282.236 325.25C281.909 324.643 281.746 323.943 281.746 323.15C281.746 322.357 281.904 321.661 282.222 321.064C282.539 320.467 282.982 320.009 283.552 319.692C284.13 319.365 284.793 319.202 285.54 319.202C286.268 319.202 286.912 319.361 287.472 319.678C288.032 319.995 288.461 320.434 288.76 320.994C289.068 321.545 289.222 322.17 289.222 322.87ZM287.906 322.604C287.906 322.119 287.798 321.703 287.584 321.358C287.369 321.003 287.075 320.737 286.702 320.56C286.338 320.373 285.932 320.28 285.484 320.28C284.84 320.28 284.289 320.485 283.832 320.896C283.384 321.307 283.127 321.876 283.062 322.604H287.906ZM297.8 319.202C298.462 319.202 299.041 319.347 299.536 319.636C300.04 319.925 300.413 320.289 300.656 320.728V319.328H301.944V327.168C301.944 327.868 301.794 328.489 301.496 329.03C301.197 329.581 300.768 330.01 300.208 330.318C299.657 330.626 299.013 330.78 298.276 330.78C297.268 330.78 296.428 330.542 295.756 330.066C295.084 329.59 294.687 328.941 294.566 328.12H295.826C295.966 328.587 296.255 328.96 296.694 329.24C297.132 329.529 297.66 329.674 298.276 329.674C298.976 329.674 299.545 329.455 299.984 329.016C300.432 328.577 300.656 327.961 300.656 327.168V325.558C300.404 326.006 300.03 326.379 299.536 326.678C299.041 326.977 298.462 327.126 297.8 327.126C297.118 327.126 296.498 326.958 295.938 326.622C295.387 326.286 294.953 325.815 294.636 325.208C294.318 324.601 294.16 323.911 294.16 323.136C294.16 322.352 294.318 321.666 294.636 321.078C294.953 320.481 295.387 320.019 295.938 319.692C296.498 319.365 297.118 319.202 297.8 319.202ZM300.656 323.15C300.656 322.571 300.539 322.067 300.306 321.638C300.072 321.209 299.755 320.882 299.354 320.658C298.962 320.425 298.528 320.308 298.052 320.308C297.576 320.308 297.142 320.42 296.75 320.644C296.358 320.868 296.045 321.195 295.812 321.624C295.578 322.053 295.462 322.557 295.462 323.136C295.462 323.724 295.578 324.237 295.812 324.676C296.045 325.105 296.358 325.437 296.75 325.67C297.142 325.894 297.576 326.006 298.052 326.006C298.528 326.006 298.962 325.894 299.354 325.67C299.755 325.437 300.072 325.105 300.306 324.676C300.539 324.237 300.656 323.729 300.656 323.15ZM305.371 320.574C305.595 320.135 305.912 319.795 306.323 319.552C306.743 319.309 307.251 319.188 307.849 319.188V320.504H307.513C306.085 320.504 305.371 321.279 305.371 322.828V327H304.097V319.328H305.371V320.574ZM312.665 327.126C311.947 327.126 311.293 326.963 310.705 326.636C310.127 326.309 309.669 325.847 309.333 325.25C309.007 324.643 308.843 323.943 308.843 323.15C308.843 322.366 309.011 321.675 309.347 321.078C309.693 320.471 310.159 320.009 310.747 319.692C311.335 319.365 311.993 319.202 312.721 319.202C313.449 319.202 314.107 319.365 314.695 319.692C315.283 320.009 315.745 320.467 316.081 321.064C316.427 321.661 316.599 322.357 316.599 323.15C316.599 323.943 316.422 324.643 316.067 325.25C315.722 325.847 315.251 326.309 314.653 326.636C314.056 326.963 313.393 327.126 312.665 327.126ZM312.665 326.006C313.123 326.006 313.552 325.899 313.953 325.684C314.355 325.469 314.677 325.147 314.919 324.718C315.171 324.289 315.297 323.766 315.297 323.15C315.297 322.534 315.176 322.011 314.933 321.582C314.691 321.153 314.373 320.835 313.981 320.63C313.589 320.415 313.165 320.308 312.707 320.308C312.241 320.308 311.811 320.415 311.419 320.63C311.037 320.835 310.729 321.153 310.495 321.582C310.262 322.011 310.145 322.534 310.145 323.15C310.145 323.775 310.257 324.303 310.481 324.732C310.715 325.161 311.023 325.483 311.405 325.698C311.788 325.903 312.208 326.006 312.665 326.006ZM317.798 323.15C317.798 322.357 317.957 321.666 318.274 321.078C318.592 320.481 319.03 320.019 319.59 319.692C320.16 319.365 320.808 319.202 321.536 319.202C322.479 319.202 323.254 319.431 323.86 319.888C324.476 320.345 324.882 320.98 325.078 321.792H323.706C323.576 321.325 323.319 320.957 322.936 320.686C322.563 320.415 322.096 320.28 321.536 320.28C320.808 320.28 320.22 320.532 319.772 321.036C319.324 321.531 319.1 322.235 319.1 323.15C319.1 324.074 319.324 324.788 319.772 325.292C320.22 325.796 320.808 326.048 321.536 326.048C322.096 326.048 322.563 325.917 322.936 325.656C323.31 325.395 323.566 325.021 323.706 324.536H325.078C324.873 325.32 324.462 325.95 323.846 326.426C323.23 326.893 322.46 327.126 321.536 327.126C320.808 327.126 320.16 326.963 319.59 326.636C319.03 326.309 318.592 325.847 318.274 325.25C317.957 324.653 317.798 323.953 317.798 323.15ZM333.778 322.87C333.778 323.113 333.764 323.369 333.736 323.64H327.604C327.651 324.396 327.908 324.989 328.374 325.418C328.85 325.838 329.424 326.048 330.096 326.048C330.647 326.048 331.104 325.922 331.468 325.67C331.842 325.409 332.103 325.063 332.252 324.634H333.624C333.419 325.371 333.008 325.973 332.392 326.44C331.776 326.897 331.011 327.126 330.096 327.126C329.368 327.126 328.715 326.963 328.136 326.636C327.567 326.309 327.119 325.847 326.792 325.25C326.466 324.643 326.302 323.943 326.302 323.15C326.302 322.357 326.461 321.661 326.778 321.064C327.096 320.467 327.539 320.009 328.108 319.692C328.687 319.365 329.35 319.202 330.096 319.202C330.824 319.202 331.468 319.361 332.028 319.678C332.588 319.995 333.018 320.434 333.316 320.994C333.624 321.545 333.778 322.17 333.778 322.87ZM332.462 322.604C332.462 322.119 332.355 321.703 332.14 321.358C331.926 321.003 331.632 320.737 331.258 320.56C330.894 320.373 330.488 320.28 330.04 320.28C329.396 320.28 328.846 320.485 328.388 320.896C327.94 321.307 327.684 321.876 327.618 322.604H332.462ZM336.734 320.574C336.958 320.135 337.275 319.795 337.686 319.552C338.106 319.309 338.615 319.188 339.212 319.188V320.504H338.876C337.448 320.504 336.734 321.279 336.734 322.828V327H335.46V319.328H336.734V320.574ZM341.34 318.082C341.098 318.082 340.892 317.998 340.724 317.83C340.556 317.662 340.472 317.457 340.472 317.214C340.472 316.971 340.556 316.766 340.724 316.598C340.892 316.43 341.098 316.346 341.34 316.346C341.574 316.346 341.77 316.43 341.928 316.598C342.096 316.766 342.18 316.971 342.18 317.214C342.18 317.457 342.096 317.662 341.928 317.83C341.77 317.998 341.574 318.082 341.34 318.082ZM341.956 319.328V327H340.682V319.328H341.956ZM351.128 322.87C351.128 323.113 351.114 323.369 351.086 323.64H344.954C345 324.396 345.257 324.989 345.724 325.418C346.2 325.838 346.774 326.048 347.446 326.048C347.996 326.048 348.454 325.922 348.818 325.67C349.191 325.409 349.452 325.063 349.602 324.634H350.974C350.768 325.371 350.358 325.973 349.742 326.44C349.126 326.897 348.36 327.126 347.446 327.126C346.718 327.126 346.064 326.963 345.486 326.636C344.916 326.309 344.468 325.847 344.142 325.25C343.815 324.643 343.652 323.943 343.652 323.15C343.652 322.357 343.81 321.661 344.128 321.064C344.445 320.467 344.888 320.009 345.458 319.692C346.036 319.365 346.699 319.202 347.446 319.202C348.174 319.202 348.818 319.361 349.378 319.678C349.938 319.995 350.367 320.434 350.666 320.994C350.974 321.545 351.128 322.17 351.128 322.87ZM349.812 322.604C349.812 322.119 349.704 321.703 349.49 321.358C349.275 321.003 348.981 320.737 348.608 320.56C348.244 320.373 347.838 320.28 347.39 320.28C346.746 320.28 346.195 320.485 345.738 320.896C345.29 321.307 345.033 321.876 344.968 322.604H349.812ZM355.525 327.126C354.937 327.126 354.41 327.028 353.943 326.832C353.477 326.627 353.108 326.347 352.837 325.992C352.567 325.628 352.417 325.213 352.389 324.746H353.705C353.743 325.129 353.92 325.441 354.237 325.684C354.564 325.927 354.989 326.048 355.511 326.048C355.997 326.048 356.379 325.941 356.659 325.726C356.939 325.511 357.079 325.241 357.079 324.914C357.079 324.578 356.93 324.331 356.631 324.172C356.333 324.004 355.871 323.841 355.245 323.682C354.676 323.533 354.209 323.383 353.845 323.234C353.491 323.075 353.183 322.847 352.921 322.548C352.669 322.24 352.543 321.839 352.543 321.344C352.543 320.952 352.66 320.593 352.893 320.266C353.127 319.939 353.458 319.683 353.887 319.496C354.317 319.3 354.807 319.202 355.357 319.202C356.207 319.202 356.893 319.417 357.415 319.846C357.938 320.275 358.218 320.863 358.255 321.61H356.981C356.953 321.209 356.79 320.887 356.491 320.644C356.202 320.401 355.81 320.28 355.315 320.28C354.858 320.28 354.494 320.378 354.223 320.574C353.953 320.77 353.817 321.027 353.817 321.344C353.817 321.596 353.897 321.806 354.055 321.974C354.223 322.133 354.429 322.263 354.671 322.366C354.923 322.459 355.269 322.567 355.707 322.688C356.258 322.837 356.706 322.987 357.051 323.136C357.397 323.276 357.691 323.491 357.933 323.78C358.185 324.069 358.316 324.447 358.325 324.914C358.325 325.334 358.209 325.712 357.975 326.048C357.742 326.384 357.411 326.65 356.981 326.846C356.561 327.033 356.076 327.126 355.525 327.126ZM360.53 327.084C360.287 327.084 360.082 327 359.914 326.832C359.746 326.664 359.662 326.459 359.662 326.216C359.662 325.973 359.746 325.768 359.914 325.6C360.082 325.432 360.287 325.348 360.53 325.348C360.763 325.348 360.959 325.432 361.118 325.6C361.286 325.768 361.37 325.973 361.37 326.216C361.37 326.459 361.286 326.664 361.118 326.832C360.959 327 360.763 327.084 360.53 327.084Z" fill="#676767"/>
<path d="M187.974 247.8V244.962H193.276V261H190.108V247.8H187.974ZM206.878 247.624H199.75V251.386C200.058 251.005 200.498 250.697 201.07 250.462C201.642 250.213 202.251 250.088 202.896 250.088C204.07 250.088 205.03 250.345 205.778 250.858C206.526 251.371 207.069 252.031 207.406 252.838C207.744 253.63 207.912 254.481 207.912 255.39C207.912 257.077 207.428 258.433 206.46 259.46C205.507 260.487 204.143 261 202.368 261C200.696 261 199.362 260.582 198.364 259.746C197.367 258.91 196.802 257.817 196.67 256.468H199.662C199.794 257.055 200.088 257.524 200.542 257.876C201.012 258.228 201.606 258.404 202.324 258.404C203.19 258.404 203.842 258.133 204.282 257.59C204.722 257.047 204.942 256.329 204.942 255.434C204.942 254.525 204.715 253.835 204.26 253.366C203.82 252.882 203.168 252.64 202.302 252.64C201.686 252.64 201.173 252.794 200.762 253.102C200.352 253.41 200.058 253.821 199.882 254.334H196.934V244.918H206.878V247.624ZM214.619 254.862C214.619 253.63 214.861 252.537 215.345 251.584C215.843 250.631 216.518 249.897 217.369 249.384C218.219 248.871 219.165 248.614 220.207 248.614C220.999 248.614 221.754 248.79 222.473 249.142C223.191 249.479 223.763 249.934 224.189 250.506V244.72H227.313V261H224.189V259.196C223.807 259.797 223.272 260.281 222.583 260.648C221.893 261.015 221.094 261.198 220.185 261.198C219.158 261.198 218.219 260.934 217.369 260.406C216.518 259.878 215.843 259.137 215.345 258.184C214.861 257.216 214.619 256.109 214.619 254.862ZM224.211 254.906C224.211 254.158 224.064 253.52 223.771 252.992C223.477 252.449 223.081 252.039 222.583 251.76C222.084 251.467 221.549 251.32 220.977 251.32C220.405 251.32 219.877 251.459 219.393 251.738C218.909 252.017 218.513 252.427 218.205 252.97C217.911 253.498 217.765 254.129 217.765 254.862C217.765 255.595 217.911 256.241 218.205 256.798C218.513 257.341 218.909 257.759 219.393 258.052C219.891 258.345 220.419 258.492 220.977 258.492C221.549 258.492 222.084 258.353 222.583 258.074C223.081 257.781 223.477 257.37 223.771 256.842C224.064 256.299 224.211 255.654 224.211 254.906ZM229.309 254.862C229.309 253.63 229.551 252.537 230.035 251.584C230.534 250.631 231.201 249.897 232.037 249.384C232.888 248.871 233.834 248.614 234.875 248.614C235.784 248.614 236.576 248.797 237.251 249.164C237.94 249.531 238.49 249.993 238.901 250.55V248.812H242.003V261H238.901V259.218C238.505 259.79 237.955 260.267 237.251 260.648C236.562 261.015 235.762 261.198 234.853 261.198C233.826 261.198 232.888 260.934 232.037 260.406C231.201 259.878 230.534 259.137 230.035 258.184C229.551 257.216 229.309 256.109 229.309 254.862ZM238.901 254.906C238.901 254.158 238.754 253.52 238.461 252.992C238.168 252.449 237.772 252.039 237.273 251.76C236.774 251.467 236.239 251.32 235.667 251.32C235.095 251.32 234.567 251.459 234.083 251.738C233.599 252.017 233.203 252.427 232.895 252.97C232.602 253.498 232.455 254.129 232.455 254.862C232.455 255.595 232.602 256.241 232.895 256.798C233.203 257.341 233.599 257.759 234.083 258.052C234.582 258.345 235.11 258.492 235.667 258.492C236.239 258.492 236.774 258.353 237.273 258.074C237.772 257.781 238.168 257.37 238.461 256.842C238.754 256.299 238.901 255.654 238.901 254.906ZM256.451 248.812L248.905 266.764H245.627L248.267 260.692L243.383 248.812H246.837L249.983 257.326L253.173 248.812H256.451ZM262.555 261.198C261.558 261.198 260.663 261.022 259.871 260.67C259.079 260.303 258.449 259.812 257.979 259.196C257.525 258.58 257.275 257.898 257.231 257.15H260.333C260.392 257.619 260.619 258.008 261.015 258.316C261.426 258.624 261.932 258.778 262.533 258.778C263.12 258.778 263.575 258.661 263.897 258.426C264.235 258.191 264.403 257.891 264.403 257.524C264.403 257.128 264.198 256.835 263.787 256.644C263.391 256.439 262.753 256.219 261.873 255.984C260.964 255.764 260.216 255.537 259.629 255.302C259.057 255.067 258.559 254.708 258.133 254.224C257.723 253.74 257.517 253.087 257.517 252.266C257.517 251.591 257.708 250.975 258.089 250.418C258.485 249.861 259.043 249.421 259.761 249.098C260.495 248.775 261.353 248.614 262.335 248.614C263.787 248.614 264.946 248.981 265.811 249.714C266.677 250.433 267.153 251.408 267.241 252.64H264.293C264.249 252.156 264.044 251.775 263.677 251.496C263.325 251.203 262.849 251.056 262.247 251.056C261.69 251.056 261.257 251.159 260.949 251.364C260.656 251.569 260.509 251.855 260.509 252.222C260.509 252.633 260.715 252.948 261.125 253.168C261.536 253.373 262.174 253.586 263.039 253.806C263.919 254.026 264.645 254.253 265.217 254.488C265.789 254.723 266.281 255.089 266.691 255.588C267.117 256.072 267.337 256.717 267.351 257.524C267.351 258.228 267.153 258.859 266.757 259.416C266.376 259.973 265.819 260.413 265.085 260.736C264.367 261.044 263.523 261.198 262.555 261.198ZM277.762 250.704C278.158 250.059 278.671 249.553 279.302 249.186C279.947 248.819 280.68 248.636 281.502 248.636V251.87H280.688C279.72 251.87 278.986 252.097 278.488 252.552C278.004 253.007 277.762 253.799 277.762 254.928V261H274.682V248.812H277.762V250.704ZM294.686 254.642C294.686 255.082 294.657 255.478 294.598 255.83H285.688C285.762 256.71 286.07 257.399 286.612 257.898C287.155 258.397 287.822 258.646 288.614 258.646C289.758 258.646 290.572 258.155 291.056 257.172H294.378C294.026 258.345 293.352 259.313 292.354 260.076C291.357 260.824 290.132 261.198 288.68 261.198C287.507 261.198 286.451 260.941 285.512 260.428C284.588 259.9 283.862 259.159 283.334 258.206C282.821 257.253 282.564 256.153 282.564 254.906C282.564 253.645 282.821 252.537 283.334 251.584C283.848 250.631 284.566 249.897 285.49 249.384C286.414 248.871 287.478 248.614 288.68 248.614C289.839 248.614 290.873 248.863 291.782 249.362C292.706 249.861 293.418 250.572 293.916 251.496C294.43 252.405 294.686 253.454 294.686 254.642ZM291.496 253.762C291.482 252.97 291.196 252.339 290.638 251.87C290.081 251.386 289.399 251.144 288.592 251.144C287.83 251.144 287.184 251.379 286.656 251.848C286.143 252.303 285.828 252.941 285.71 253.762H291.496ZM300.3 251.342V257.238C300.3 257.649 300.396 257.949 300.586 258.14C300.792 258.316 301.129 258.404 301.598 258.404H303.028V261H301.092C298.496 261 297.198 259.739 297.198 257.216V251.342H295.746V248.812H297.198V245.798H300.3V248.812H303.028V251.342H300.3ZM316.53 248.812V261H313.428V259.46C313.032 259.988 312.511 260.406 311.866 260.714C311.235 261.007 310.546 261.154 309.798 261.154C308.844 261.154 308.001 260.956 307.268 260.56C306.534 260.149 305.955 259.555 305.53 258.778C305.119 257.986 304.914 257.047 304.914 255.962V248.812H307.994V255.522C307.994 256.49 308.236 257.238 308.72 257.766C309.204 258.279 309.864 258.536 310.7 258.536C311.55 258.536 312.218 258.279 312.702 257.766C313.186 257.238 313.428 256.49 313.428 255.522V248.812H316.53ZM322.429 250.704C322.825 250.059 323.338 249.553 323.969 249.186C324.614 248.819 325.347 248.636 326.169 248.636V251.87H325.355C324.387 251.87 323.653 252.097 323.155 252.552C322.671 253.007 322.429 253.799 322.429 254.928V261H319.349V248.812H322.429V250.704ZM334.777 248.636C336.229 248.636 337.403 249.098 338.297 250.022C339.192 250.931 339.639 252.207 339.639 253.85V261H336.559V254.268C336.559 253.3 336.317 252.559 335.833 252.046C335.349 251.518 334.689 251.254 333.853 251.254C333.003 251.254 332.328 251.518 331.829 252.046C331.345 252.559 331.103 253.3 331.103 254.268V261H328.023V248.812H331.103V250.33C331.514 249.802 332.035 249.391 332.665 249.098C333.311 248.79 334.015 248.636 334.777 248.636ZM347.012 261.198C346.015 261.198 345.12 261.022 344.328 260.67C343.536 260.303 342.905 259.812 342.436 259.196C341.981 258.58 341.732 257.898 341.688 257.15H344.79C344.849 257.619 345.076 258.008 345.472 258.316C345.883 258.624 346.389 258.778 346.99 258.778C347.577 258.778 348.031 258.661 348.354 258.426C348.691 258.191 348.86 257.891 348.86 257.524C348.86 257.128 348.655 256.835 348.244 256.644C347.848 256.439 347.21 256.219 346.33 255.984C345.421 255.764 344.673 255.537 344.086 255.302C343.514 255.067 343.015 254.708 342.59 254.224C342.179 253.74 341.974 253.087 341.974 252.266C341.974 251.591 342.165 250.975 342.546 250.418C342.942 249.861 343.499 249.421 344.218 249.098C344.951 248.775 345.809 248.614 346.792 248.614C348.244 248.614 349.403 248.981 350.268 249.714C351.133 250.433 351.61 251.408 351.698 252.64H348.75C348.706 252.156 348.501 251.775 348.134 251.496C347.782 251.203 347.305 251.056 346.704 251.056C346.147 251.056 345.714 251.159 345.406 251.364C345.113 251.569 344.966 251.855 344.966 252.222C344.966 252.633 345.171 252.948 345.582 253.168C345.993 253.373 346.631 253.586 347.496 253.806C348.376 254.026 349.102 254.253 349.674 254.488C350.246 254.723 350.737 255.089 351.148 255.588C351.573 256.072 351.793 256.717 351.808 257.524C351.808 258.228 351.61 258.859 351.214 259.416C350.833 259.973 350.275 260.413 349.542 260.736C348.823 261.044 347.98 261.198 347.012 261.198Z" fill="#2E2E2E"/>
<g filter="url(#filter1_d_1_305)">
<path fill-rule="evenodd" clip-rule="evenodd" d="M229.376 170.283C228.832 170.678 228.728 171.419 229.144 171.937L240.855 186.536C241.27 187.054 242.048 187.153 242.592 186.758L254.779 177.895C255.323 177.499 255.427 176.759 255.012 176.241L243.301 161.641C242.885 161.124 242.108 161.024 241.564 161.42L229.376 170.283ZM247.909 179.029C249.106 179.029 250.077 178.105 250.077 176.964C250.077 175.824 249.106 174.899 247.909 174.899C246.711 174.899 245.74 175.824 245.74 176.964C245.74 178.105 246.711 179.029 247.909 179.029Z" fill="url(#paint0_linear_1_305)"/>
<path d="M281.056 123.279C276.409 125.344 273.621 123.574 273.621 123.574L276.646 130.486C276.86 130.404 277.094 130.358 277.339 130.358H283.534C283.679 130.358 283.819 130.374 283.954 130.404L286.942 123.574C286.942 123.574 284.195 121.885 281.056 123.279Z" fill="url(#paint1_linear_1_305)"/>
<path d="M279.153 145.192C278.842 144.907 278.686 144.511 278.686 144.003C278.686 143.459 278.848 143.025 279.172 142.703C279.509 142.382 279.956 142.19 280.513 142.128V145.879C279.93 145.705 279.477 145.476 279.153 145.192Z" fill="url(#paint2_linear_1_305)"/>
<path d="M283.117 151.152C282.793 151.498 282.346 151.715 281.776 151.802V148.032C282.359 148.206 282.806 148.435 283.117 148.719C283.441 148.992 283.603 149.375 283.603 149.871C283.603 150.366 283.441 150.793 283.117 151.152Z" fill="url(#paint3_linear_1_305)"/>
<path fill-rule="evenodd" clip-rule="evenodd" d="M264.965 153.53C265.622 144.582 273.996 135.708 276.194 133.523C276.509 133.758 276.907 133.898 277.339 133.898H283.534C283.886 133.898 284.214 133.805 284.494 133.644C286.769 135.915 294.304 143.986 295.616 152.481C296.14 155.87 295.742 158.54 294.701 160.59C294.048 160.835 293.438 161.072 292.864 161.301C292.953 161.186 293.035 161.069 293.111 160.951C293.875 159.762 294.074 158.233 292.957 157.018C291.951 155.924 290.157 155.431 287.872 155.431C286.996 155.431 285.966 155.554 284.904 155.707C284.439 155.774 283.978 155.844 283.508 155.916C282.852 156.017 282.18 156.119 281.462 156.217C279.039 156.547 276.585 156.739 274.484 156.339C273.412 156.135 272.223 155.771 270.888 155.334C270.591 155.237 270.286 155.135 269.976 155.032C268.916 154.68 267.783 154.304 266.622 153.97C266.082 153.814 265.529 153.665 264.965 153.53ZM285.352 151.505C285.676 150.96 285.838 150.378 285.838 149.759C285.838 148.942 285.65 148.305 285.274 147.847C284.899 147.376 284.439 147.036 283.895 146.825C283.35 146.603 282.644 146.392 281.776 146.194V142.184C282.23 142.295 282.593 142.505 282.865 142.815C283.137 143.112 283.292 143.452 283.331 143.836H285.702C285.611 142.809 285.216 142.004 284.517 141.422C283.83 140.828 282.916 140.482 281.776 140.382V138.879H280.513V140.382C279.295 140.494 278.311 140.89 277.559 141.571C276.808 142.239 276.432 143.087 276.432 144.115C276.432 144.932 276.62 145.575 276.995 146.046C277.384 146.516 277.851 146.863 278.395 147.085C278.939 147.296 279.645 147.506 280.513 147.717V151.802C279.982 151.715 279.574 151.517 279.289 151.207C279.004 150.886 278.842 150.483 278.803 150.001H276.432C276.432 151.016 276.808 151.833 277.559 152.451C278.311 153.07 279.295 153.436 280.513 153.547V155.051H281.776V153.547C282.618 153.473 283.344 153.25 283.953 152.879C284.575 152.507 285.041 152.049 285.352 151.505Z" fill="url(#paint4_linear_1_305)"/>
<path d="M254.724 174.604L244.81 162.215C247.908 158.971 250.386 155.431 256.892 154.251C263.398 153.071 269.594 156.611 274.241 157.496C278.887 158.381 284.774 156.611 287.871 156.611C296.546 156.611 291.899 164.28 283.225 163.395C274.55 162.51 271.143 164.28 274.86 164.87C278.578 165.46 282.605 166.345 286.323 165.165C290.04 163.985 293.448 161.92 302.432 159.265C309.619 157.142 311.209 159.167 311.106 160.445C304.91 163.985 291.155 171.772 285.703 174.604C278.887 178.144 280.127 178.734 271.143 176.079C263.955 173.955 257.202 174.211 254.724 174.604Z" fill="url(#paint5_linear_1_305)"/>
<path d="M276.099 132.128C276.099 131.64 276.515 131.244 277.029 131.244H283.844C284.357 131.244 284.773 131.64 284.773 132.128C284.773 132.617 284.357 133.013 283.844 133.013H277.029C276.515 133.013 276.099 132.617 276.099 132.128Z" fill="#F54748"/>
</g>
<defs>
<filter id="filter0_d_1_305" x="0" y="0.342773" width="540" height="550" filterUnits="userSpaceOnUse" color-interpolation-filters="sRGB">
<feFlood flood-opacity="0" result="BackgroundImageFix"/>
<feColorMatrix in="SourceAlpha" type="matrix" values="0 0 0 0 0 0 0 0 0 0 0 0 0 0 0 0 0 0 127 0" result="hardAlpha"/>
<feOffset dy="40"/>
<feGaussianBlur stdDeviation="60"/>
<feColorMatrix type="matrix" values="0 0 0 0 0.195833 0 0 0 0 0.030191 0 0 0 0 0.030191 0 0 0 0.06 0"/>
<feBlend mode="normal" in2="BackgroundImageFix" result="effect1_dropShadow_1_305"/>
<feBlend mode="normal" in="SourceGraphic" in2="effect1_dropShadow_1_305" result="shape"/>
</filter>
<filter id="filter1_d_1_305" x="198.889" y="117.728" width="142.221" height="124.273" filterUnits="userSpaceOnUse" color-interpolation-filters="sRGB">
<feFlood flood-opacity="0" result="BackgroundImageFix"/>
<feColorMatrix in="SourceAlpha" type="matrix" values="0 0 0 0 0 0 0 0 0 0 0 0 0 0 0 0 0 0 127 0" result="hardAlpha"/>
<feOffset dy="25"/>
<feGaussianBlur stdDeviation="15"/>
<feColorMatrix type="matrix" values="0 0 0 0 0.972549 0 0 0 0 0.262745 0 0 0 0 0.266667 0 0 0 0.1 0"/>
<feBlend mode="normal" in2="BackgroundImageFix" result="effect1_dropShadow_1_305"/>
<feBlend mode="normal" in="SourceGraphic" in2="effect1_dropShadow_1_305" result="shape"/>
</filter>
<linearGradient id="paint0_linear_1_305" x1="242.078" y1="161.178" x2="242.078" y2="187" gradientUnits="userSpaceOnUse">
<stop stop-color="#E32223"/>
<stop offset="1" stop-color="#FD6C6D"/>
</linearGradient>
<linearGradient id="paint1_linear_1_305" x1="280.406" y1="122.728" x2="280.406" y2="161.301" gradientUnits="userSpaceOnUse">
<stop stop-color="#FF7374"/>
<stop offset="1" stop-color="#E22123"/>
</linearGradient>
<linearGradient id="paint2_linear_1_305" x1="280.406" y1="122.728" x2="280.406" y2="161.301" gradientUnits="userSpaceOnUse">
<stop stop-color="#FF7374"/>
<stop offset="1" stop-color="#E22123"/>
</linearGradient>
<linearGradient id="paint3_linear_1_305" x1="280.406" y1="122.728" x2="280.406" y2="161.301" gradientUnits="userSpaceOnUse">
<stop stop-color="#FF7374"/>
<stop offset="1" stop-color="#E22123"/>
</linearGradient>
<linearGradient id="paint4_linear_1_305" x1="280.406" y1="122.728" x2="280.406" y2="161.301" gradientUnits="userSpaceOnUse">
<stop stop-color="#FF7374"/>
<stop offset="1" stop-color="#E22123"/>
</linearGradient>
<linearGradient id="paint5_linear_1_305" x1="283.081" y1="155.935" x2="285.816" y2="173.827" gradientUnits="userSpaceOnUse">
<stop stop-color="#E22123"/>
<stop offset="1" stop-color="#FF7374"/>
</linearGradient>
</defs>
</svg>
