<svg width="301" height="311" viewBox="0 0 301 311" fill="none" xmlns="http://www.w3.org/2000/svg">
<rect x="0.865234" y="0.342773" width="300" height="310" rx="12" fill="white"/>
<path d="M48.56 212.242V222H47.286V212.242H48.56ZM53.8533 215.378H52.2433V222H50.9693V215.378H49.9753V214.328H50.9693V213.782C50.9693 212.923 51.1887 212.298 51.6273 211.906C52.0753 211.505 52.7893 211.304 53.7693 211.304V212.368C53.2093 212.368 52.8127 212.48 52.5793 212.704C52.3553 212.919 52.2433 213.278 52.2433 213.782V214.328H53.8533V215.378ZM65.6792 214.328L61.0592 225.612H59.7432L61.2552 221.916L58.1612 214.328H59.5752L61.9832 220.544L64.3632 214.328H65.6792ZM70.3058 222.126C69.5872 222.126 68.9338 221.963 68.3458 221.636C67.7672 221.309 67.3098 220.847 66.9738 220.25C66.6472 219.643 66.4838 218.943 66.4838 218.15C66.4838 217.366 66.6518 216.675 66.9878 216.078C67.3332 215.471 67.7998 215.009 68.3878 214.692C68.9758 214.365 69.6338 214.202 70.3618 214.202C71.0898 214.202 71.7478 214.365 72.3358 214.692C72.9238 215.009 73.3858 215.467 73.7218 216.064C74.0672 216.661 74.2398 217.357 74.2398 218.15C74.2398 218.943 74.0625 219.643 73.7078 220.25C73.3625 220.847 72.8912 221.309 72.2938 221.636C71.6965 221.963 71.0338 222.126 70.3058 222.126ZM70.3058 221.006C70.7632 221.006 71.1925 220.899 71.5938 220.684C71.9952 220.469 72.3172 220.147 72.5598 219.718C72.8118 219.289 72.9378 218.766 72.9378 218.15C72.9378 217.534 72.8165 217.011 72.5738 216.582C72.3312 216.153 72.0138 215.835 71.6218 215.63C71.2298 215.415 70.8052 215.308 70.3478 215.308C69.8812 215.308 69.4518 215.415 69.0598 215.63C68.6772 215.835 68.3692 216.153 68.1358 216.582C67.9025 217.011 67.7858 217.534 67.7858 218.15C67.7858 218.775 67.8978 219.303 68.1218 219.732C68.3552 220.161 68.6632 220.483 69.0458 220.698C69.4285 220.903 69.8485 221.006 70.3058 221.006ZM82.7189 214.328V222H81.4449V220.866C81.2022 221.258 80.8616 221.566 80.4229 221.79C79.9936 222.005 79.5176 222.112 78.9949 222.112C78.3976 222.112 77.8609 221.991 77.3849 221.748C76.9089 221.496 76.5309 221.123 76.2509 220.628C75.9802 220.133 75.8449 219.531 75.8449 218.822V214.328H77.1049V218.654C77.1049 219.41 77.2962 219.993 77.6789 220.404C78.0616 220.805 78.5842 221.006 79.2469 221.006C79.9282 221.006 80.4649 220.796 80.8569 220.376C81.2489 219.956 81.4449 219.345 81.4449 218.542V214.328H82.7189ZM91.7664 214.202C92.4291 214.202 93.0077 214.347 93.5024 214.636C94.0064 214.925 94.3797 215.289 94.6224 215.728V214.328H95.9104V222.168C95.9104 222.868 95.7611 223.489 95.4624 224.03C95.1637 224.581 94.7344 225.01 94.1744 225.318C93.6237 225.626 92.9797 225.78 92.2424 225.78C91.2344 225.78 90.3944 225.542 89.7224 225.066C89.0504 224.59 88.6537 223.941 88.5324 223.12H89.7924C89.9324 223.587 90.2217 223.96 90.6604 224.24C91.0991 224.529 91.6264 224.674 92.2424 224.674C92.9424 224.674 93.5117 224.455 93.9504 224.016C94.3984 223.577 94.6224 222.961 94.6224 222.168V220.558C94.3704 221.006 93.9971 221.379 93.5024 221.678C93.0077 221.977 92.4291 222.126 91.7664 222.126C91.0851 222.126 90.4644 221.958 89.9044 221.622C89.3537 221.286 88.9197 220.815 88.6024 220.208C88.2851 219.601 88.1264 218.911 88.1264 218.136C88.1264 217.352 88.2851 216.666 88.6024 216.078C88.9197 215.481 89.3537 215.019 89.9044 214.692C90.4644 214.365 91.0851 214.202 91.7664 214.202ZM94.6224 218.15C94.6224 217.571 94.5057 217.067 94.2724 216.638C94.0391 216.209 93.7217 215.882 93.3204 215.658C92.9284 215.425 92.4944 215.308 92.0184 215.308C91.5424 215.308 91.1084 215.42 90.7164 215.644C90.3244 215.868 90.0117 216.195 89.7784 216.624C89.5451 217.053 89.4284 217.557 89.4284 218.136C89.4284 218.724 89.5451 219.237 89.7784 219.676C90.0117 220.105 90.3244 220.437 90.7164 220.67C91.1084 220.894 91.5424 221.006 92.0184 221.006C92.4944 221.006 92.9284 220.894 93.3204 220.67C93.7217 220.437 94.0391 220.105 94.2724 219.676C94.5057 219.237 94.6224 218.729 94.6224 218.15ZM105.063 217.87C105.063 218.113 105.049 218.369 105.021 218.64H98.8894C98.936 219.396 99.1927 219.989 99.6594 220.418C100.135 220.838 100.709 221.048 101.381 221.048C101.932 221.048 102.389 220.922 102.753 220.67C103.127 220.409 103.388 220.063 103.537 219.634H104.909C104.704 220.371 104.293 220.973 103.677 221.44C103.061 221.897 102.296 222.126 101.381 222.126C100.653 222.126 100 221.963 99.4214 221.636C98.852 221.309 98.404 220.847 98.0774 220.25C97.7507 219.643 97.5874 218.943 97.5874 218.15C97.5874 217.357 97.746 216.661 98.0634 216.064C98.3807 215.467 98.824 215.009 99.3934 214.692C99.972 214.365 100.635 214.202 101.381 214.202C102.109 214.202 102.753 214.361 103.313 214.678C103.873 214.995 104.303 215.434 104.601 215.994C104.909 216.545 105.063 217.17 105.063 217.87ZM103.747 217.604C103.747 217.119 103.64 216.703 103.425 216.358C103.211 216.003 102.917 215.737 102.543 215.56C102.179 215.373 101.773 215.28 101.325 215.28C100.681 215.28 100.131 215.485 99.6734 215.896C99.2254 216.307 98.9687 216.876 98.9034 217.604H103.747ZM108.299 215.378V219.9C108.299 220.273 108.378 220.539 108.537 220.698C108.696 220.847 108.971 220.922 109.363 220.922H110.301V222H109.153C108.444 222 107.912 221.837 107.557 221.51C107.202 221.183 107.025 220.647 107.025 219.9V215.378H106.031V214.328H107.025V212.396H108.299V214.328H110.301V215.378H108.299ZM116.851 215.574C117.075 215.135 117.392 214.795 117.803 214.552C118.223 214.309 118.732 214.188 119.329 214.188V215.504H118.993C117.565 215.504 116.851 216.279 116.851 217.828V222H115.577V214.328H116.851V215.574ZM124.146 222.126C123.427 222.126 122.774 221.963 122.186 221.636C121.607 221.309 121.15 220.847 120.814 220.25C120.487 219.643 120.324 218.943 120.324 218.15C120.324 217.366 120.492 216.675 120.828 216.078C121.173 215.471 121.64 215.009 122.228 214.692C122.816 214.365 123.474 214.202 124.202 214.202C124.93 214.202 125.588 214.365 126.176 214.692C126.764 215.009 127.226 215.467 127.562 216.064C127.907 216.661 128.08 217.357 128.08 218.15C128.08 218.943 127.902 219.643 127.548 220.25C127.202 220.847 126.731 221.309 126.134 221.636C125.536 221.963 124.874 222.126 124.146 222.126ZM124.146 221.006C124.603 221.006 125.032 220.899 125.434 220.684C125.835 220.469 126.157 220.147 126.4 219.718C126.652 219.289 126.778 218.766 126.778 218.15C126.778 217.534 126.656 217.011 126.414 216.582C126.171 216.153 125.854 215.835 125.462 215.63C125.07 215.415 124.645 215.308 124.188 215.308C123.721 215.308 123.292 215.415 122.9 215.63C122.517 215.835 122.209 216.153 121.976 216.582C121.742 217.011 121.626 217.534 121.626 218.15C121.626 218.775 121.738 219.303 121.962 219.732C122.195 220.161 122.503 220.483 122.886 220.698C123.268 220.903 123.688 221.006 124.146 221.006ZM131.309 215.378V219.9C131.309 220.273 131.388 220.539 131.547 220.698C131.705 220.847 131.981 220.922 132.373 220.922H133.311V222H132.163C131.453 222 130.921 221.837 130.567 221.51C130.212 221.183 130.035 220.647 130.035 219.9V215.378H129.041V214.328H130.035V212.396H131.309V214.328H133.311V215.378H131.309ZM136.408 215.378V219.9C136.408 220.273 136.488 220.539 136.646 220.698C136.805 220.847 137.08 220.922 137.472 220.922H138.41V222H137.262C136.553 222 136.021 221.837 135.666 221.51C135.312 221.183 135.134 220.647 135.134 219.9V215.378H134.14V214.328H135.134V212.396H136.408V214.328H138.41V215.378H136.408ZM146.954 217.87C146.954 218.113 146.94 218.369 146.912 218.64H140.78C140.827 219.396 141.083 219.989 141.55 220.418C142.026 220.838 142.6 221.048 143.272 221.048C143.823 221.048 144.28 220.922 144.644 220.67C145.017 220.409 145.279 220.063 145.428 219.634H146.8C146.595 220.371 146.184 220.973 145.568 221.44C144.952 221.897 144.187 222.126 143.272 222.126C142.544 222.126 141.891 221.963 141.312 221.636C140.743 221.309 140.295 220.847 139.968 220.25C139.641 219.643 139.478 218.943 139.478 218.15C139.478 217.357 139.637 216.661 139.954 216.064C140.271 215.467 140.715 215.009 141.284 214.692C141.863 214.365 142.525 214.202 143.272 214.202C144 214.202 144.644 214.361 145.204 214.678C145.764 214.995 146.193 215.434 146.492 215.994C146.8 216.545 146.954 217.17 146.954 217.87ZM145.638 217.604C145.638 217.119 145.531 216.703 145.316 216.358C145.101 216.003 144.807 215.737 144.434 215.56C144.07 215.373 143.664 215.28 143.216 215.28C142.572 215.28 142.021 215.485 141.564 215.896C141.116 216.307 140.859 216.876 140.794 217.604H145.638ZM152.374 214.188C153.307 214.188 154.063 214.473 154.642 215.042C155.22 215.602 155.51 216.414 155.51 217.478V222H154.25V217.66C154.25 216.895 154.058 216.311 153.676 215.91C153.293 215.499 152.77 215.294 152.108 215.294C151.436 215.294 150.899 215.504 150.498 215.924C150.106 216.344 149.91 216.955 149.91 217.758V222H148.636V214.328H149.91V215.42C150.162 215.028 150.502 214.725 150.932 214.51C151.37 214.295 151.851 214.188 152.374 214.188ZM161.981 213.082C161.738 213.082 161.533 212.998 161.365 212.83C161.197 212.662 161.113 212.457 161.113 212.214C161.113 211.971 161.197 211.766 161.365 211.598C161.533 211.43 161.738 211.346 161.981 211.346C162.214 211.346 162.41 211.43 162.569 211.598C162.737 211.766 162.821 211.971 162.821 212.214C162.821 212.457 162.737 212.662 162.569 212.83C162.41 212.998 162.214 213.082 161.981 213.082ZM162.597 214.328V222H161.323V214.328H162.597ZM166.322 215.378V219.9C166.322 220.273 166.402 220.539 166.56 220.698C166.719 220.847 166.994 220.922 167.386 220.922H168.324V222H167.176C166.467 222 165.935 221.837 165.58 221.51C165.226 221.183 165.048 220.647 165.048 219.9V215.378H164.054V214.328H165.048V212.396H166.322V214.328H168.324V215.378H166.322ZM176.868 217.87C176.868 218.113 176.854 218.369 176.826 218.64H170.694C170.741 219.396 170.997 219.989 171.464 220.418C171.94 220.838 172.514 221.048 173.186 221.048C173.737 221.048 174.194 220.922 174.558 220.67C174.931 220.409 175.193 220.063 175.342 219.634H176.714C176.509 220.371 176.098 220.973 175.482 221.44C174.866 221.897 174.101 222.126 173.186 222.126C172.458 222.126 171.805 221.963 171.226 221.636C170.657 221.309 170.209 220.847 169.882 220.25C169.555 219.643 169.392 218.943 169.392 218.15C169.392 217.357 169.551 216.661 169.868 216.064C170.185 215.467 170.629 215.009 171.198 214.692C171.777 214.365 172.439 214.202 173.186 214.202C173.914 214.202 174.558 214.361 175.118 214.678C175.678 214.995 176.107 215.434 176.406 215.994C176.714 216.545 176.868 217.17 176.868 217.87ZM175.552 217.604C175.552 217.119 175.445 216.703 175.23 216.358C175.015 216.003 174.721 215.737 174.348 215.56C173.984 215.373 173.578 215.28 173.13 215.28C172.486 215.28 171.935 215.485 171.478 215.896C171.03 216.307 170.773 216.876 170.708 217.604H175.552ZM187.776 214.188C188.373 214.188 188.905 214.314 189.372 214.566C189.838 214.809 190.207 215.177 190.478 215.672C190.748 216.167 190.884 216.769 190.884 217.478V222H189.624V217.66C189.624 216.895 189.432 216.311 189.05 215.91C188.676 215.499 188.168 215.294 187.524 215.294C186.861 215.294 186.334 215.509 185.942 215.938C185.55 216.358 185.354 216.969 185.354 217.772V222H184.094V217.66C184.094 216.895 183.902 216.311 183.52 215.91C183.146 215.499 182.638 215.294 181.994 215.294C181.331 215.294 180.804 215.509 180.412 215.938C180.02 216.358 179.824 216.969 179.824 217.772V222H178.55V214.328H179.824V215.434C180.076 215.033 180.412 214.725 180.832 214.51C181.261 214.295 181.732 214.188 182.246 214.188C182.89 214.188 183.459 214.333 183.954 214.622C184.448 214.911 184.817 215.336 185.06 215.896C185.274 215.355 185.629 214.935 186.124 214.636C186.618 214.337 187.169 214.188 187.776 214.188ZM195.69 222.126C195.102 222.126 194.574 222.028 194.108 221.832C193.641 221.627 193.272 221.347 193.002 220.992C192.731 220.628 192.582 220.213 192.554 219.746H193.87C193.907 220.129 194.084 220.441 194.402 220.684C194.728 220.927 195.153 221.048 195.676 221.048C196.161 221.048 196.544 220.941 196.824 220.726C197.104 220.511 197.244 220.241 197.244 219.914C197.244 219.578 197.094 219.331 196.796 219.172C196.497 219.004 196.035 218.841 195.41 218.682C194.84 218.533 194.374 218.383 194.01 218.234C193.655 218.075 193.347 217.847 193.086 217.548C192.834 217.24 192.708 216.839 192.708 216.344C192.708 215.952 192.824 215.593 193.058 215.266C193.291 214.939 193.622 214.683 194.052 214.496C194.481 214.3 194.971 214.202 195.522 214.202C196.371 214.202 197.057 214.417 197.58 214.846C198.102 215.275 198.382 215.863 198.42 216.61H197.146C197.118 216.209 196.954 215.887 196.656 215.644C196.366 215.401 195.974 215.28 195.48 215.28C195.022 215.28 194.658 215.378 194.388 215.574C194.117 215.77 193.982 216.027 193.982 216.344C193.982 216.596 194.061 216.806 194.22 216.974C194.388 217.133 194.593 217.263 194.836 217.366C195.088 217.459 195.433 217.567 195.872 217.688C196.422 217.837 196.87 217.987 197.216 218.136C197.561 218.276 197.855 218.491 198.098 218.78C198.35 219.069 198.48 219.447 198.49 219.914C198.49 220.334 198.373 220.712 198.14 221.048C197.906 221.384 197.575 221.65 197.146 221.846C196.726 222.033 196.24 222.126 195.69 222.126ZM209.34 216.33V217.408H203.754V216.33H209.34ZM216.738 215.574C216.962 215.135 217.279 214.795 217.69 214.552C218.11 214.309 218.618 214.188 219.216 214.188V215.504H218.88C217.452 215.504 216.738 216.279 216.738 217.828V222H215.464V214.328H216.738V215.574ZM227.686 217.87C227.686 218.113 227.672 218.369 227.644 218.64H221.512C221.559 219.396 221.816 219.989 222.282 220.418C222.758 220.838 223.332 221.048 224.004 221.048C224.555 221.048 225.012 220.922 225.376 220.67C225.75 220.409 226.011 220.063 226.16 219.634H227.532C227.327 220.371 226.916 220.973 226.3 221.44C225.684 221.897 224.919 222.126 224.004 222.126C223.276 222.126 222.623 221.963 222.044 221.636C221.475 221.309 221.027 220.847 220.7 220.25C220.374 219.643 220.21 218.943 220.21 218.15C220.21 217.357 220.369 216.661 220.686 216.064C221.004 215.467 221.447 215.009 222.016 214.692C222.595 214.365 223.258 214.202 224.004 214.202C224.732 214.202 225.376 214.361 225.936 214.678C226.496 214.995 226.926 215.434 227.224 215.994C227.532 216.545 227.686 217.17 227.686 217.87ZM226.37 217.604C226.37 217.119 226.263 216.703 226.048 216.358C225.834 216.003 225.54 215.737 225.166 215.56C224.802 215.373 224.396 215.28 223.948 215.28C223.304 215.28 222.754 215.485 222.296 215.896C221.848 216.307 221.592 216.876 221.526 217.604H226.37ZM230.922 215.378V219.9C230.922 220.273 231.001 220.539 231.16 220.698C231.319 220.847 231.594 220.922 231.986 220.922H232.924V222H231.776C231.067 222 230.535 221.837 230.18 221.51C229.825 221.183 229.648 220.647 229.648 219.9V215.378H228.654V214.328H229.648V212.396H230.922V214.328H232.924V215.378H230.922ZM241.272 214.328V222H239.998V220.866C239.755 221.258 239.414 221.566 238.976 221.79C238.546 222.005 238.07 222.112 237.548 222.112C236.95 222.112 236.414 221.991 235.938 221.748C235.462 221.496 235.084 221.123 234.804 220.628C234.533 220.133 234.398 219.531 234.398 218.822V214.328H235.658V218.654C235.658 219.41 235.849 219.993 236.232 220.404C236.614 220.805 237.137 221.006 237.8 221.006C238.481 221.006 239.018 220.796 239.41 220.376C239.802 219.956 239.998 219.345 239.998 218.542V214.328H241.272ZM244.697 215.574C244.921 215.135 245.238 214.795 245.649 214.552C246.069 214.309 246.577 214.188 247.175 214.188V215.504H246.839C245.411 215.504 244.697 216.279 244.697 217.828V222H243.423V214.328H244.697V215.574ZM252.383 214.188C253.317 214.188 254.073 214.473 254.651 215.042C255.23 215.602 255.519 216.414 255.519 217.478V222H254.259V217.66C254.259 216.895 254.068 216.311 253.685 215.91C253.303 215.499 252.78 215.294 252.117 215.294C251.445 215.294 250.909 215.504 250.507 215.924C250.115 216.344 249.919 216.955 249.919 217.758V222H248.645V214.328H249.919V215.42C250.171 215.028 250.512 214.725 250.941 214.51C251.38 214.295 251.861 214.188 252.383 214.188ZM88.5085 238.082C88.2658 238.082 88.0605 237.998 87.8925 237.83C87.7245 237.662 87.6405 237.457 87.6405 237.214C87.6405 236.971 87.7245 236.766 87.8925 236.598C88.0605 236.43 88.2658 236.346 88.5085 236.346C88.7418 236.346 88.9378 236.43 89.0965 236.598C89.2645 236.766 89.3485 236.971 89.3485 237.214C89.3485 237.457 89.2645 237.662 89.0965 237.83C88.9378 237.998 88.7418 238.082 88.5085 238.082ZM89.1245 239.328V247H87.8505V239.328H89.1245ZM100.522 239.188C101.119 239.188 101.651 239.314 102.118 239.566C102.584 239.809 102.953 240.177 103.224 240.672C103.494 241.167 103.63 241.769 103.63 242.478V247H102.37V242.66C102.37 241.895 102.178 241.311 101.796 240.91C101.422 240.499 100.914 240.294 100.27 240.294C99.6071 240.294 99.0798 240.509 98.6878 240.938C98.2958 241.358 98.0998 241.969 98.0998 242.772V247H96.8398V242.66C96.8398 241.895 96.6484 241.311 96.2658 240.91C95.8924 240.499 95.3838 240.294 94.7398 240.294C94.0771 240.294 93.5498 240.509 93.1578 240.938C92.7658 241.358 92.5698 241.969 92.5698 242.772V247H91.2958V239.328H92.5698V240.434C92.8218 240.033 93.1578 239.725 93.5778 239.51C94.0071 239.295 94.4784 239.188 94.9918 239.188C95.6358 239.188 96.2051 239.333 96.6998 239.622C97.1944 239.911 97.5631 240.336 97.8058 240.896C98.0204 240.355 98.3751 239.935 98.8698 239.636C99.3644 239.337 99.9151 239.188 100.522 239.188ZM114.946 239.188C115.543 239.188 116.075 239.314 116.542 239.566C117.008 239.809 117.377 240.177 117.648 240.672C117.918 241.167 118.054 241.769 118.054 242.478V247H116.794V242.66C116.794 241.895 116.602 241.311 116.22 240.91C115.846 240.499 115.338 240.294 114.694 240.294C114.031 240.294 113.504 240.509 113.112 240.938C112.72 241.358 112.524 241.969 112.524 242.772V247H111.264V242.66C111.264 241.895 111.072 241.311 110.69 240.91C110.316 240.499 109.808 240.294 109.164 240.294C108.501 240.294 107.974 240.509 107.582 240.938C107.19 241.358 106.994 241.969 106.994 242.772V247H105.72V239.328H106.994V240.434C107.246 240.033 107.582 239.725 108.002 239.51C108.431 239.295 108.902 239.188 109.416 239.188C110.06 239.188 110.629 239.333 111.124 239.622C111.618 239.911 111.987 240.336 112.23 240.896C112.444 240.355 112.799 239.935 113.294 239.636C113.788 239.337 114.339 239.188 114.946 239.188ZM127.143 242.87C127.143 243.113 127.129 243.369 127.101 243.64H120.969C121.016 244.396 121.273 244.989 121.739 245.418C122.215 245.838 122.789 246.048 123.461 246.048C124.012 246.048 124.469 245.922 124.833 245.67C125.207 245.409 125.468 245.063 125.617 244.634H126.989C126.784 245.371 126.373 245.973 125.757 246.44C125.141 246.897 124.376 247.126 123.461 247.126C122.733 247.126 122.08 246.963 121.501 246.636C120.932 246.309 120.484 245.847 120.157 245.25C119.831 244.643 119.667 243.943 119.667 243.15C119.667 242.357 119.826 241.661 120.143 241.064C120.461 240.467 120.904 240.009 121.473 239.692C122.052 239.365 122.715 239.202 123.461 239.202C124.189 239.202 124.833 239.361 125.393 239.678C125.953 239.995 126.383 240.434 126.681 240.994C126.989 241.545 127.143 242.17 127.143 242.87ZM125.827 242.604C125.827 242.119 125.72 241.703 125.505 241.358C125.291 241.003 124.997 240.737 124.623 240.56C124.259 240.373 123.853 240.28 123.405 240.28C122.761 240.28 122.211 240.485 121.753 240.896C121.305 241.307 121.049 241.876 120.983 242.604H125.827ZM128.349 243.136C128.349 242.352 128.508 241.666 128.825 241.078C129.142 240.481 129.576 240.019 130.127 239.692C130.687 239.365 131.312 239.202 132.003 239.202C132.6 239.202 133.156 239.342 133.669 239.622C134.182 239.893 134.574 240.252 134.845 240.7V236.64H136.133V247H134.845V245.558C134.593 246.015 134.22 246.393 133.725 246.692C133.23 246.981 132.652 247.126 131.989 247.126C131.308 247.126 130.687 246.958 130.127 246.622C129.576 246.286 129.142 245.815 128.825 245.208C128.508 244.601 128.349 243.911 128.349 243.136ZM134.845 243.15C134.845 242.571 134.728 242.067 134.495 241.638C134.262 241.209 133.944 240.882 133.543 240.658C133.151 240.425 132.717 240.308 132.241 240.308C131.765 240.308 131.331 240.42 130.939 240.644C130.547 240.868 130.234 241.195 130.001 241.624C129.768 242.053 129.651 242.557 129.651 243.136C129.651 243.724 129.768 244.237 130.001 244.676C130.234 245.105 130.547 245.437 130.939 245.67C131.331 245.894 131.765 246.006 132.241 246.006C132.717 246.006 133.151 245.894 133.543 245.67C133.944 245.437 134.262 245.105 134.495 244.676C134.728 244.237 134.845 243.729 134.845 243.15ZM138.944 238.082C138.701 238.082 138.496 237.998 138.328 237.83C138.16 237.662 138.076 237.457 138.076 237.214C138.076 236.971 138.16 236.766 138.328 236.598C138.496 236.43 138.701 236.346 138.944 236.346C139.177 236.346 139.373 236.43 139.532 236.598C139.7 236.766 139.784 236.971 139.784 237.214C139.784 237.457 139.7 237.662 139.532 237.83C139.373 237.998 139.177 238.082 138.944 238.082ZM139.56 239.328V247H138.286V239.328H139.56ZM141.255 243.136C141.255 242.352 141.414 241.666 141.731 241.078C142.049 240.481 142.483 240.019 143.033 239.692C143.593 239.365 144.214 239.202 144.895 239.202C145.567 239.202 146.151 239.347 146.645 239.636C147.14 239.925 147.509 240.289 147.751 240.728V239.328H149.039V247H147.751V245.572C147.499 246.02 147.121 246.393 146.617 246.692C146.123 246.981 145.544 247.126 144.881 247.126C144.2 247.126 143.584 246.958 143.033 246.622C142.483 246.286 142.049 245.815 141.731 245.208C141.414 244.601 141.255 243.911 141.255 243.136ZM147.751 243.15C147.751 242.571 147.635 242.067 147.401 241.638C147.168 241.209 146.851 240.882 146.449 240.658C146.057 240.425 145.623 240.308 145.147 240.308C144.671 240.308 144.237 240.42 143.845 240.644C143.453 240.868 143.141 241.195 142.907 241.624C142.674 242.053 142.557 242.557 142.557 243.136C142.557 243.724 142.674 244.237 142.907 244.676C143.141 245.105 143.453 245.437 143.845 245.67C144.237 245.894 144.671 246.006 145.147 246.006C145.623 246.006 146.057 245.894 146.449 245.67C146.851 245.437 147.168 245.105 147.401 244.676C147.635 244.237 147.751 243.729 147.751 243.15ZM152.746 240.378V244.9C152.746 245.273 152.826 245.539 152.984 245.698C153.143 245.847 153.418 245.922 153.81 245.922H154.748V247H153.6C152.891 247 152.359 246.837 152.004 246.51C151.65 246.183 151.472 245.647 151.472 244.9V240.378H150.478V239.328H151.472V237.396H152.746V239.328H154.748V240.378H152.746ZM163.292 242.87C163.292 243.113 163.278 243.369 163.25 243.64H157.118C157.165 244.396 157.421 244.989 157.888 245.418C158.364 245.838 158.938 246.048 159.61 246.048C160.161 246.048 160.618 245.922 160.982 245.67C161.355 245.409 161.617 245.063 161.766 244.634H163.138C162.933 245.371 162.522 245.973 161.906 246.44C161.29 246.897 160.525 247.126 159.61 247.126C158.882 247.126 158.229 246.963 157.65 246.636C157.081 246.309 156.633 245.847 156.306 245.25C155.979 244.643 155.816 243.943 155.816 243.15C155.816 242.357 155.975 241.661 156.292 241.064C156.609 240.467 157.053 240.009 157.622 239.692C158.201 239.365 158.863 239.202 159.61 239.202C160.338 239.202 160.982 239.361 161.542 239.678C162.102 239.995 162.531 240.434 162.83 240.994C163.138 241.545 163.292 242.17 163.292 242.87ZM161.976 242.604C161.976 242.119 161.869 241.703 161.654 241.358C161.439 241.003 161.145 240.737 160.772 240.56C160.408 240.373 160.002 240.28 159.554 240.28C158.91 240.28 158.359 240.485 157.902 240.896C157.454 241.307 157.197 241.876 157.132 242.604H161.976ZM166.248 236.64V247H164.974V236.64H166.248ZM175.027 239.328L170.407 250.612H169.091L170.603 246.916L167.509 239.328H168.923L171.331 245.544L173.711 239.328H175.027ZM181.594 240.378V244.9C181.594 245.273 181.673 245.539 181.832 245.698C181.991 245.847 182.266 245.922 182.658 245.922H183.596V247H182.448C181.739 247 181.207 246.837 180.852 246.51C180.497 246.183 180.32 245.647 180.32 244.9V240.378H179.326V239.328H180.32V237.396H181.594V239.328H183.596V240.378H181.594ZM188.486 247.126C187.767 247.126 187.114 246.963 186.526 246.636C185.947 246.309 185.49 245.847 185.154 245.25C184.827 244.643 184.664 243.943 184.664 243.15C184.664 242.366 184.832 241.675 185.168 241.078C185.513 240.471 185.98 240.009 186.568 239.692C187.156 239.365 187.814 239.202 188.542 239.202C189.27 239.202 189.928 239.365 190.516 239.692C191.104 240.009 191.566 240.467 191.902 241.064C192.247 241.661 192.42 242.357 192.42 243.15C192.42 243.943 192.242 244.643 191.888 245.25C191.542 245.847 191.071 246.309 190.474 246.636C189.876 246.963 189.214 247.126 188.486 247.126ZM188.486 246.006C188.943 246.006 189.372 245.899 189.774 245.684C190.175 245.469 190.497 245.147 190.74 244.718C190.992 244.289 191.118 243.766 191.118 243.15C191.118 242.534 190.996 242.011 190.754 241.582C190.511 241.153 190.194 240.835 189.802 240.63C189.41 240.415 188.985 240.308 188.528 240.308C188.061 240.308 187.632 240.415 187.24 240.63C186.857 240.835 186.549 241.153 186.316 241.582C186.082 242.011 185.966 242.534 185.966 243.15C185.966 243.775 186.078 244.303 186.302 244.732C186.535 245.161 186.843 245.483 187.226 245.698C187.608 245.903 188.028 246.006 188.486 246.006ZM204.631 239.328V247H203.357V245.866C203.114 246.258 202.774 246.566 202.335 246.79C201.906 247.005 201.43 247.112 200.907 247.112C200.31 247.112 199.773 246.991 199.297 246.748C198.821 246.496 198.443 246.123 198.163 245.628C197.892 245.133 197.757 244.531 197.757 243.822V239.328H199.017V243.654C199.017 244.41 199.208 244.993 199.591 245.404C199.974 245.805 200.496 246.006 201.159 246.006C201.84 246.006 202.377 245.796 202.769 245.376C203.161 244.956 203.357 244.345 203.357 243.542V239.328H204.631ZM209.498 247.126C208.91 247.126 208.383 247.028 207.916 246.832C207.449 246.627 207.081 246.347 206.81 245.992C206.539 245.628 206.39 245.213 206.362 244.746H207.678C207.715 245.129 207.893 245.441 208.21 245.684C208.537 245.927 208.961 246.048 209.484 246.048C209.969 246.048 210.352 245.941 210.632 245.726C210.912 245.511 211.052 245.241 211.052 244.914C211.052 244.578 210.903 244.331 210.604 244.172C210.305 244.004 209.843 243.841 209.218 243.682C208.649 243.533 208.182 243.383 207.818 243.234C207.463 243.075 207.155 242.847 206.894 242.548C206.642 242.24 206.516 241.839 206.516 241.344C206.516 240.952 206.633 240.593 206.866 240.266C207.099 239.939 207.431 239.683 207.86 239.496C208.289 239.3 208.779 239.202 209.33 239.202C210.179 239.202 210.865 239.417 211.388 239.846C211.911 240.275 212.191 240.863 212.228 241.61H210.954C210.926 241.209 210.763 240.887 210.464 240.644C210.175 240.401 209.783 240.28 209.288 240.28C208.831 240.28 208.467 240.378 208.196 240.574C207.925 240.77 207.79 241.027 207.79 241.344C207.79 241.596 207.869 241.806 208.028 241.974C208.196 242.133 208.401 242.263 208.644 242.366C208.896 242.459 209.241 242.567 209.68 242.688C210.231 242.837 210.679 242.987 211.024 243.136C211.369 243.276 211.663 243.491 211.906 243.78C212.158 244.069 212.289 244.447 212.298 244.914C212.298 245.334 212.181 245.712 211.948 246.048C211.715 246.384 211.383 246.65 210.954 246.846C210.534 247.033 210.049 247.126 209.498 247.126ZM214.503 247.084C214.26 247.084 214.055 247 213.887 246.832C213.719 246.664 213.635 246.459 213.635 246.216C213.635 245.973 213.719 245.768 213.887 245.6C214.055 245.432 214.26 245.348 214.503 245.348C214.736 245.348 214.932 245.432 215.091 245.6C215.259 245.768 215.343 245.973 215.343 246.216C215.343 246.459 215.259 246.664 215.091 246.832C214.932 247 214.736 247.084 214.503 247.084Z" fill="#676767"/>
<path d="M65.7145 181.154C64.6438 181.154 63.6758 180.971 62.8105 180.604C61.9598 180.237 61.2852 179.709 60.7865 179.02C60.2878 178.331 60.0312 177.517 60.0165 176.578H63.3165C63.3605 177.209 63.5805 177.707 63.9765 178.074C64.3872 178.441 64.9445 178.624 65.6485 178.624C66.3672 178.624 66.9318 178.455 67.3425 178.118C67.7532 177.766 67.9585 177.311 67.9585 176.754C67.9585 176.299 67.8192 175.925 67.5405 175.632C67.2618 175.339 66.9098 175.111 66.4845 174.95C66.0738 174.774 65.5018 174.583 64.7685 174.378C63.7712 174.085 62.9572 173.799 62.3265 173.52C61.7105 173.227 61.1752 172.794 60.7205 172.222C60.2805 171.635 60.0605 170.858 60.0605 169.89C60.0605 168.981 60.2878 168.189 60.7425 167.514C61.1972 166.839 61.8352 166.326 62.6565 165.974C63.4778 165.607 64.4165 165.424 65.4725 165.424C67.0565 165.424 68.3398 165.813 69.3225 166.59C70.3198 167.353 70.8698 168.423 70.9725 169.802H67.5845C67.5552 169.274 67.3278 168.841 66.9025 168.504C66.4918 168.152 65.9418 167.976 65.2525 167.976C64.6512 167.976 64.1672 168.13 63.8005 168.438C63.4485 168.746 63.2725 169.193 63.2725 169.78C63.2725 170.191 63.4045 170.535 63.6685 170.814C63.9472 171.078 64.2845 171.298 64.6805 171.474C65.0912 171.635 65.6632 171.826 66.3965 172.046C67.3938 172.339 68.2078 172.633 68.8385 172.926C69.4692 173.219 70.0118 173.659 70.4665 174.246C70.9212 174.833 71.1485 175.603 71.1485 176.556C71.1485 177.377 70.9358 178.14 70.5105 178.844C70.0852 179.548 69.4618 180.113 68.6405 180.538C67.8192 180.949 66.8438 181.154 65.7145 181.154ZM84.9287 174.642C84.9287 175.082 84.8994 175.478 84.8407 175.83H75.9307C76.0041 176.71 76.3121 177.399 76.8547 177.898C77.3974 178.397 78.0647 178.646 78.8567 178.646C80.0007 178.646 80.8147 178.155 81.2987 177.172H84.6207C84.2687 178.345 83.5941 179.313 82.5967 180.076C81.5994 180.824 80.3747 181.198 78.9227 181.198C77.7494 181.198 76.6934 180.941 75.7547 180.428C74.8307 179.9 74.1047 179.159 73.5767 178.206C73.0634 177.253 72.8067 176.153 72.8067 174.906C72.8067 173.645 73.0634 172.537 73.5767 171.584C74.0901 170.631 74.8087 169.897 75.7327 169.384C76.6567 168.871 77.7201 168.614 78.9227 168.614C80.0814 168.614 81.1154 168.863 82.0247 169.362C82.9487 169.861 83.6601 170.572 84.1587 171.496C84.6721 172.405 84.9287 173.454 84.9287 174.642ZM81.7387 173.762C81.7241 172.97 81.4381 172.339 80.8807 171.87C80.3234 171.386 79.6414 171.144 78.8347 171.144C78.0721 171.144 77.4267 171.379 76.8987 171.848C76.3854 172.303 76.0701 172.941 75.9527 173.762H81.7387ZM86.1649 174.906C86.1649 173.645 86.4215 172.545 86.9349 171.606C87.4482 170.653 88.1595 169.919 89.0689 169.406C89.9782 168.878 91.0195 168.614 92.1929 168.614C93.7035 168.614 94.9502 168.995 95.9329 169.758C96.9302 170.506 97.5975 171.562 97.9349 172.926H94.6129C94.4369 172.398 94.1362 171.987 93.7109 171.694C93.3002 171.386 92.7869 171.232 92.1709 171.232C91.2909 171.232 90.5942 171.555 90.0809 172.2C89.5675 172.831 89.3109 173.733 89.3109 174.906C89.3109 176.065 89.5675 176.967 90.0809 177.612C90.5942 178.243 91.2909 178.558 92.1709 178.558C93.4175 178.558 94.2315 178.001 94.6129 176.886H97.9349C97.5975 178.206 96.9302 179.255 95.9329 180.032C94.9355 180.809 93.6889 181.198 92.1929 181.198C91.0195 181.198 89.9782 180.941 89.0689 180.428C88.1595 179.9 87.4482 179.167 86.9349 178.228C86.4215 177.275 86.1649 176.167 86.1649 174.906ZM111.477 168.812V181H108.375V179.46C107.979 179.988 107.459 180.406 106.813 180.714C106.183 181.007 105.493 181.154 104.745 181.154C103.792 181.154 102.949 180.956 102.215 180.56C101.482 180.149 100.903 179.555 100.477 178.778C100.067 177.986 99.8612 177.047 99.8612 175.962V168.812H102.941V175.522C102.941 176.49 103.183 177.238 103.667 177.766C104.151 178.279 104.811 178.536 105.647 178.536C106.498 178.536 107.165 178.279 107.649 177.766C108.133 177.238 108.375 176.49 108.375 175.522V168.812H111.477ZM117.376 170.704C117.772 170.059 118.285 169.553 118.916 169.186C119.561 168.819 120.295 168.636 121.116 168.636V171.87H120.302C119.334 171.87 118.601 172.097 118.102 172.552C117.618 173.007 117.376 173.799 117.376 174.928V181H114.296V168.812H117.376V170.704ZM134.301 174.642C134.301 175.082 134.271 175.478 134.213 175.83H125.303C125.376 176.71 125.684 177.399 126.227 177.898C126.769 178.397 127.437 178.646 128.229 178.646C129.373 178.646 130.187 178.155 130.671 177.172H133.993C133.641 178.345 132.966 179.313 131.969 180.076C130.971 180.824 129.747 181.198 128.295 181.198C127.121 181.198 126.065 180.941 125.127 180.428C124.203 179.9 123.477 179.159 122.949 178.206C122.435 177.253 122.179 176.153 122.179 174.906C122.179 173.645 122.435 172.537 122.949 171.584C123.462 170.631 124.181 169.897 125.105 169.384C126.029 168.871 127.092 168.614 128.295 168.614C129.453 168.614 130.487 168.863 131.397 169.362C132.321 169.861 133.032 170.572 133.531 171.496C134.044 172.405 134.301 173.454 134.301 174.642ZM131.111 173.762C131.096 172.97 130.81 172.339 130.253 171.87C129.695 171.386 129.013 171.144 128.207 171.144C127.444 171.144 126.799 171.379 126.271 171.848C125.757 172.303 125.442 172.941 125.325 173.762H131.111ZM140.559 174.906C140.559 173.645 140.816 172.545 141.329 171.606C141.842 170.653 142.554 169.919 143.463 169.406C144.372 168.878 145.414 168.614 146.587 168.614C148.098 168.614 149.344 168.995 150.327 169.758C151.324 170.506 151.992 171.562 152.329 172.926H149.007C148.831 172.398 148.53 171.987 148.105 171.694C147.694 171.386 147.181 171.232 146.565 171.232C145.685 171.232 144.988 171.555 144.475 172.2C143.962 172.831 143.705 173.733 143.705 174.906C143.705 176.065 143.962 176.967 144.475 177.612C144.988 178.243 145.685 178.558 146.565 178.558C147.812 178.558 148.626 178.001 149.007 176.886H152.329C151.992 178.206 151.324 179.255 150.327 180.032C149.33 180.809 148.083 181.198 146.587 181.198C145.414 181.198 144.372 180.941 143.463 180.428C142.554 179.9 141.842 179.167 141.329 178.228C140.816 177.275 140.559 176.167 140.559 174.906ZM161.229 168.636C162.153 168.636 162.975 168.841 163.693 169.252C164.412 169.648 164.969 170.242 165.365 171.034C165.776 171.811 165.981 172.75 165.981 173.85V181H162.901V174.268C162.901 173.3 162.659 172.559 162.175 172.046C161.691 171.518 161.031 171.254 160.195 171.254C159.345 171.254 158.67 171.518 158.171 172.046C157.687 172.559 157.445 173.3 157.445 174.268V181H154.365V164.72H157.445V170.33C157.841 169.802 158.369 169.391 159.029 169.098C159.689 168.79 160.423 168.636 161.229 168.636ZM180.02 174.642C180.02 175.082 179.991 175.478 179.932 175.83H171.022C171.096 176.71 171.404 177.399 171.946 177.898C172.489 178.397 173.156 178.646 173.948 178.646C175.092 178.646 175.906 178.155 176.39 177.172H179.712C179.36 178.345 178.686 179.313 177.688 180.076C176.691 180.824 175.466 181.198 174.014 181.198C172.841 181.198 171.785 180.941 170.846 180.428C169.922 179.9 169.196 179.159 168.668 178.206C168.155 177.253 167.898 176.153 167.898 174.906C167.898 173.645 168.155 172.537 168.668 171.584C169.182 170.631 169.9 169.897 170.824 169.384C171.748 168.871 172.812 168.614 174.014 168.614C175.173 168.614 176.207 168.863 177.116 169.362C178.04 169.861 178.752 170.572 179.25 171.496C179.764 172.405 180.02 173.454 180.02 174.642ZM176.83 173.762C176.816 172.97 176.53 172.339 175.972 171.87C175.415 171.386 174.733 171.144 173.926 171.144C173.164 171.144 172.518 171.379 171.99 171.848C171.477 172.303 171.162 172.941 171.044 173.762H176.83ZM181.256 174.906C181.256 173.645 181.513 172.545 182.026 171.606C182.54 170.653 183.251 169.919 184.16 169.406C185.07 168.878 186.111 168.614 187.284 168.614C188.795 168.614 190.042 168.995 191.024 169.758C192.022 170.506 192.689 171.562 193.026 172.926H189.704C189.528 172.398 189.228 171.987 188.802 171.694C188.392 171.386 187.878 171.232 187.262 171.232C186.382 171.232 185.686 171.555 185.172 172.2C184.659 172.831 184.402 173.733 184.402 174.906C184.402 176.065 184.659 176.967 185.172 177.612C185.686 178.243 186.382 178.558 187.262 178.558C188.509 178.558 189.323 178.001 189.704 176.886H193.026C192.689 178.206 192.022 179.255 191.024 180.032C190.027 180.809 188.78 181.198 187.284 181.198C186.111 181.198 185.07 180.941 184.16 180.428C183.251 179.9 182.54 179.167 182.026 178.228C181.513 177.275 181.256 176.167 181.256 174.906ZM202.279 181L198.143 175.808V181H195.063V164.72H198.143V173.982L202.235 168.812H206.239L200.871 174.928L206.283 181H202.279ZM213.102 181.198C211.929 181.198 210.873 180.941 209.934 180.428C208.996 179.9 208.255 179.159 207.712 178.206C207.184 177.253 206.92 176.153 206.92 174.906C206.92 173.659 207.192 172.559 207.734 171.606C208.292 170.653 209.047 169.919 210 169.406C210.954 168.878 212.017 168.614 213.19 168.614C214.364 168.614 215.427 168.878 216.38 169.406C217.334 169.919 218.082 170.653 218.624 171.606C219.182 172.559 219.46 173.659 219.46 174.906C219.46 176.153 219.174 177.253 218.602 178.206C218.045 179.159 217.282 179.9 216.314 180.428C215.361 180.941 214.29 181.198 213.102 181.198ZM213.102 178.514C213.66 178.514 214.18 178.382 214.664 178.118C215.163 177.839 215.559 177.429 215.852 176.886C216.146 176.343 216.292 175.683 216.292 174.906C216.292 173.747 215.984 172.86 215.368 172.244C214.767 171.613 214.026 171.298 213.146 171.298C212.266 171.298 211.526 171.613 210.924 172.244C210.338 172.86 210.044 173.747 210.044 174.906C210.044 176.065 210.33 176.959 210.902 177.59C211.489 178.206 212.222 178.514 213.102 178.514ZM233.006 168.812V181H229.904V179.46C229.508 179.988 228.987 180.406 228.342 180.714C227.711 181.007 227.022 181.154 226.274 181.154C225.32 181.154 224.477 180.956 223.744 180.56C223.01 180.149 222.431 179.555 222.006 178.778C221.595 177.986 221.39 177.047 221.39 175.962V168.812H224.47V175.522C224.47 176.49 224.712 177.238 225.196 177.766C225.68 178.279 226.34 178.536 227.176 178.536C228.026 178.536 228.694 178.279 229.178 177.766C229.662 177.238 229.904 176.49 229.904 175.522V168.812H233.006ZM239.411 171.342V177.238C239.411 177.649 239.506 177.949 239.697 178.14C239.902 178.316 240.239 178.404 240.709 178.404H242.139V181H240.203C237.607 181 236.309 179.739 236.309 177.216V171.342H234.857V168.812H236.309V165.798H239.411V168.812H242.139V171.342H239.411Z" fill="#2E2E2E"/>
<g filter="url(#filter0_d_1_289)">
<path fill-rule="evenodd" clip-rule="evenodd" d="M118.684 54.814H116.565C115.395 54.814 114.446 55.7615 114.446 56.9303V72.2732C114.446 73.442 115.395 74.3895 116.565 74.3895H141.464C142.635 74.3895 143.583 73.442 143.583 72.2732V56.9303C143.583 55.7615 142.635 54.814 141.464 54.814H139.345V50.3169C139.345 44.6191 134.72 40.0001 129.015 40.0001C123.309 40.0001 118.684 44.6191 118.684 50.3169V54.814ZM120.803 54.814H137.226V50.3169C137.226 45.7879 133.55 42.1164 129.015 42.1164C124.48 42.1164 120.803 45.7879 120.803 50.3169V54.814ZM130.03 63.5059C130.535 63.1751 130.869 62.6046 130.869 61.9564C130.869 60.9337 130.039 60.1047 129.015 60.1047C127.991 60.1047 127.161 60.9337 127.161 61.9564C127.161 62.6046 127.494 63.1751 127.999 63.5059C127.971 63.6017 127.955 63.7031 127.955 63.8081V65.9244C127.955 66.5088 128.43 66.9825 129.015 66.9825C129.6 66.9825 130.074 66.5088 130.074 65.9244V63.8081C130.074 63.7031 130.059 63.6017 130.03 63.5059Z" fill="url(#paint0_linear_1_289)"/>
<path fill-rule="evenodd" clip-rule="evenodd" d="M134.577 76.5057V95.023C134.577 97.945 136.949 100.314 139.874 100.314H165.925L177.942 108.678C178.644 109.167 179.607 108.665 179.607 107.81V100.314H182.256C185.182 100.314 187.553 97.945 187.553 95.023V71.215C187.553 68.293 185.182 65.9243 182.256 65.9243H145.702V72.2731C145.702 74.6107 143.804 76.5057 141.464 76.5057H134.577ZM147.291 75.4475C147.291 74.8631 147.766 74.3894 148.351 74.3894H173.779C174.365 74.3894 174.839 74.8631 174.839 75.4475C174.839 76.0319 174.365 76.5057 173.779 76.5057H148.351C147.766 76.5057 147.291 76.0319 147.291 75.4475ZM147.291 82.8545C147.291 82.27 147.766 81.7963 148.351 81.7963H173.779C174.365 81.7963 174.839 82.27 174.839 82.8545C174.839 83.4389 174.365 83.9126 173.779 83.9126H148.351C147.766 83.9126 147.291 83.4389 147.291 82.8545ZM148.351 89.2033C147.766 89.2033 147.291 89.677 147.291 90.2614C147.291 90.8457 147.766 91.3195 148.351 91.3195H173.779C174.365 91.3195 174.839 90.8457 174.839 90.2614C174.839 89.677 174.365 89.2033 173.779 89.2033H148.351Z" fill="url(#paint1_linear_1_289)"/>
</g>
<defs>
<filter id="filter0_d_1_289" x="84.4462" y="35.0001" width="133.107" height="128.87" filterUnits="userSpaceOnUse" color-interpolation-filters="sRGB">
<feFlood flood-opacity="0" result="BackgroundImageFix"/>
<feColorMatrix in="SourceAlpha" type="matrix" values="0 0 0 0 0 0 0 0 0 0 0 0 0 0 0 0 0 0 127 0" result="hardAlpha"/>
<feOffset dy="25"/>
<feGaussianBlur stdDeviation="15"/>
<feColorMatrix type="matrix" values="0 0 0 0 0.972549 0 0 0 0 0.262745 0 0 0 0 0.266667 0 0 0 0.1 0"/>
<feBlend mode="normal" in2="BackgroundImageFix" result="effect1_dropShadow_1_289"/>
<feBlend mode="normal" in="SourceGraphic" in2="effect1_dropShadow_1_289" result="shape"/>
</filter>
<linearGradient id="paint0_linear_1_289" x1="129.015" y1="40.0001" x2="129.015" y2="74.3895" gradientUnits="userSpaceOnUse">
<stop stop-color="#FF7374"/>
<stop offset="1" stop-color="#E22123"/>
</linearGradient>
<linearGradient id="paint1_linear_1_289" x1="161.065" y1="65.9243" x2="161.065" y2="108.87" gradientUnits="userSpaceOnUse">
<stop stop-color="#FF7374"/>
<stop offset="1" stop-color="#E22123"/>
</linearGradient>
</defs>
</svg>
