<svg width="300" height="311" viewBox="0 0 300 311" fill="none" xmlns="http://www.w3.org/2000/svg">
<rect y="0.342773" width="300" height="310" rx="12" fill="white"/>
<path d="M42.853 213.278V216.54H46.409V217.59H42.853V220.95H46.829V222H41.579V212.228H46.829V213.278H42.853ZM52.4947 214.188C53.428 214.188 54.184 214.473 54.7627 215.042C55.3414 215.602 55.6307 216.414 55.6307 217.478V222H54.3707V217.66C54.3707 216.895 54.1794 216.311 53.7967 215.91C53.414 215.499 52.8914 215.294 52.2287 215.294C51.5567 215.294 51.02 215.504 50.6187 215.924C50.2267 216.344 50.0307 216.955 50.0307 217.758V222H48.7567V214.328H50.0307V215.42C50.2827 215.028 50.6234 214.725 51.0527 214.51C51.4914 214.295 51.972 214.188 52.4947 214.188ZM58.3978 213.082C58.1551 213.082 57.9498 212.998 57.7818 212.83C57.6231 212.662 57.5438 212.457 57.5438 212.214C57.5438 211.971 57.6231 211.766 57.7818 211.598C57.9498 211.43 58.1551 211.346 58.3978 211.346C58.6405 211.346 58.8411 211.43 58.9998 211.598C59.1678 211.766 59.2518 211.971 59.2518 212.214C59.2518 212.457 59.1678 212.662 58.9998 212.83C58.8411 212.998 58.6405 213.082 58.3978 213.082ZM59.0278 223.666C59.0278 224.347 58.8551 224.847 58.5098 225.164C58.1645 225.481 57.6605 225.64 56.9978 225.64H56.2558V224.562H56.7878C57.1425 224.562 57.3898 224.492 57.5298 224.352C57.6791 224.212 57.7538 223.974 57.7538 223.638V214.328H59.0278V223.666ZM64.5304 222.126C63.8118 222.126 63.1584 221.963 62.5704 221.636C61.9918 221.309 61.5344 220.847 61.1984 220.25C60.8718 219.643 60.7084 218.943 60.7084 218.15C60.7084 217.366 60.8764 216.675 61.2124 216.078C61.5578 215.471 62.0244 215.009 62.6124 214.692C63.2004 214.365 63.8584 214.202 64.5864 214.202C65.3144 214.202 65.9724 214.365 66.5604 214.692C67.1484 215.009 67.6104 215.467 67.9464 216.064C68.2918 216.661 68.4644 217.357 68.4644 218.15C68.4644 218.943 68.2871 219.643 67.9324 220.25C67.5871 220.847 67.1158 221.309 66.5184 221.636C65.9211 221.963 65.2584 222.126 64.5304 222.126ZM64.5304 221.006C64.9878 221.006 65.4171 220.899 65.8184 220.684C66.2198 220.469 66.5418 220.147 66.7844 219.718C67.0364 219.289 67.1624 218.766 67.1624 218.15C67.1624 217.534 67.0411 217.011 66.7984 216.582C66.5558 216.153 66.2384 215.835 65.8464 215.63C65.4544 215.415 65.0298 215.308 64.5724 215.308C64.1058 215.308 63.6764 215.415 63.2844 215.63C62.9018 215.835 62.5938 216.153 62.3604 216.582C62.1271 217.011 62.0104 217.534 62.0104 218.15C62.0104 218.775 62.1224 219.303 62.3464 219.732C62.5798 220.161 62.8878 220.483 63.2704 220.698C63.6531 220.903 64.0731 221.006 64.5304 221.006ZM76.7475 214.328L72.1275 225.612H70.8115L72.3235 221.916L69.2295 214.328H70.6435L73.0515 220.544L75.4315 214.328H76.7475ZM86.1846 222.098C85.2793 222.098 84.4533 221.888 83.7066 221.468C82.96 221.039 82.3673 220.446 81.9286 219.69C81.4993 218.925 81.2846 218.066 81.2846 217.114C81.2846 216.162 81.4993 215.308 81.9286 214.552C82.3673 213.787 82.96 213.194 83.7066 212.774C84.4533 212.345 85.2793 212.13 86.1846 212.13C87.0993 212.13 87.93 212.345 88.6766 212.774C89.4233 213.194 90.0113 213.782 90.4406 214.538C90.87 215.294 91.0846 216.153 91.0846 217.114C91.0846 218.075 90.87 218.934 90.4406 219.69C90.0113 220.446 89.4233 221.039 88.6766 221.468C87.93 221.888 87.0993 222.098 86.1846 222.098ZM86.1846 220.992C86.866 220.992 87.4773 220.833 88.0186 220.516C88.5693 220.199 88.9986 219.746 89.3066 219.158C89.624 218.57 89.7826 217.889 89.7826 217.114C89.7826 216.33 89.624 215.649 89.3066 215.07C88.9986 214.482 88.574 214.029 88.0326 213.712C87.4913 213.395 86.8753 213.236 86.1846 213.236C85.494 213.236 84.878 213.395 84.3366 213.712C83.7953 214.029 83.366 214.482 83.0486 215.07C82.7406 215.649 82.5866 216.33 82.5866 217.114C82.5866 217.889 82.7406 218.57 83.0486 219.158C83.366 219.746 83.7953 220.199 84.3366 220.516C84.8873 220.833 85.5033 220.992 86.1846 220.992ZM94.0405 215.574C94.2645 215.135 94.5818 214.795 94.9925 214.552C95.4125 214.309 95.9211 214.188 96.5185 214.188V215.504H96.1825C94.7545 215.504 94.0405 216.279 94.0405 217.828V222H92.7665V214.328H94.0405V215.574ZM97.5131 218.136C97.5131 217.352 97.6718 216.666 97.9891 216.078C98.3065 215.481 98.7405 215.019 99.2911 214.692C99.8511 214.365 100.476 214.202 101.167 214.202C101.764 214.202 102.32 214.342 102.833 214.622C103.346 214.893 103.738 215.252 104.009 215.7V211.64H105.297V222H104.009V220.558C103.757 221.015 103.384 221.393 102.889 221.692C102.394 221.981 101.816 222.126 101.153 222.126C100.472 222.126 99.8511 221.958 99.2911 221.622C98.7405 221.286 98.3065 220.815 97.9891 220.208C97.6718 219.601 97.5131 218.911 97.5131 218.136ZM104.009 218.15C104.009 217.571 103.892 217.067 103.659 216.638C103.426 216.209 103.108 215.882 102.707 215.658C102.315 215.425 101.881 215.308 101.405 215.308C100.929 215.308 100.495 215.42 100.103 215.644C99.7111 215.868 99.3985 216.195 99.1651 216.624C98.9318 217.053 98.8151 217.557 98.8151 218.136C98.8151 218.724 98.9318 219.237 99.1651 219.676C99.3985 220.105 99.7111 220.437 100.103 220.67C100.495 220.894 100.929 221.006 101.405 221.006C101.881 221.006 102.315 220.894 102.707 220.67C103.108 220.437 103.426 220.105 103.659 219.676C103.892 219.237 104.009 218.729 104.009 218.15ZM114.45 217.87C114.45 218.113 114.436 218.369 114.408 218.64H108.276C108.323 219.396 108.579 219.989 109.046 220.418C109.522 220.838 110.096 221.048 110.768 221.048C111.319 221.048 111.776 220.922 112.14 220.67C112.513 220.409 112.775 220.063 112.924 219.634H114.296C114.091 220.371 113.68 220.973 113.064 221.44C112.448 221.897 111.683 222.126 110.768 222.126C110.04 222.126 109.387 221.963 108.808 221.636C108.239 221.309 107.791 220.847 107.464 220.25C107.137 219.643 106.974 218.943 106.974 218.15C106.974 217.357 107.133 216.661 107.45 216.064C107.767 215.467 108.211 215.009 108.78 214.692C109.359 214.365 110.021 214.202 110.768 214.202C111.496 214.202 112.14 214.361 112.7 214.678C113.26 214.995 113.689 215.434 113.988 215.994C114.296 216.545 114.45 217.17 114.45 217.87ZM113.134 217.604C113.134 217.119 113.027 216.703 112.812 216.358C112.597 216.003 112.303 215.737 111.93 215.56C111.566 215.373 111.16 215.28 110.712 215.28C110.068 215.28 109.517 215.485 109.06 215.896C108.612 216.307 108.355 216.876 108.29 217.604H113.134ZM117.406 215.574C117.63 215.135 117.947 214.795 118.358 214.552C118.778 214.309 119.286 214.188 119.884 214.188V215.504H119.548C118.12 215.504 117.406 216.279 117.406 217.828V222H116.132V214.328H117.406V215.574ZM125.745 213.082C125.502 213.082 125.297 212.998 125.129 212.83C124.961 212.662 124.877 212.457 124.877 212.214C124.877 211.971 124.961 211.766 125.129 211.598C125.297 211.43 125.502 211.346 125.745 211.346C125.978 211.346 126.174 211.43 126.333 211.598C126.501 211.766 126.585 211.971 126.585 212.214C126.585 212.457 126.501 212.662 126.333 212.83C126.174 212.998 125.978 213.082 125.745 213.082ZM126.361 214.328V222H125.087V214.328H126.361ZM132.27 214.188C133.203 214.188 133.959 214.473 134.538 215.042C135.117 215.602 135.406 216.414 135.406 217.478V222H134.146V217.66C134.146 216.895 133.955 216.311 133.572 215.91C133.189 215.499 132.667 215.294 132.004 215.294C131.332 215.294 130.795 215.504 130.394 215.924C130.002 216.344 129.806 216.955 129.806 217.758V222H128.532V214.328H129.806V215.42C130.058 215.028 130.399 214.725 130.828 214.51C131.267 214.295 131.747 214.188 132.27 214.188ZM140.744 218.136C140.744 217.352 140.902 216.666 141.22 216.078C141.537 215.481 141.971 215.019 142.522 214.692C143.082 214.365 143.702 214.202 144.384 214.202C145.056 214.202 145.639 214.347 146.134 214.636C146.628 214.925 146.997 215.289 147.24 215.728V214.328H148.528V222H147.24V220.572C146.988 221.02 146.61 221.393 146.106 221.692C145.611 221.981 145.032 222.126 144.37 222.126C143.688 222.126 143.072 221.958 142.522 221.622C141.971 221.286 141.537 220.815 141.22 220.208C140.902 219.601 140.744 218.911 140.744 218.136ZM147.24 218.15C147.24 217.571 147.123 217.067 146.89 216.638C146.656 216.209 146.339 215.882 145.938 215.658C145.546 215.425 145.112 215.308 144.636 215.308C144.16 215.308 143.726 215.42 143.334 215.644C142.942 215.868 142.629 216.195 142.396 216.624C142.162 217.053 142.046 217.557 142.046 218.136C142.046 218.724 142.162 219.237 142.396 219.676C142.629 220.105 142.942 220.437 143.334 220.67C143.726 220.894 144.16 221.006 144.636 221.006C145.112 221.006 145.546 220.894 145.938 220.67C146.339 220.437 146.656 220.105 146.89 219.676C147.123 219.237 147.24 218.729 147.24 218.15ZM158.221 214.188C158.8 214.188 159.322 214.314 159.789 214.566C160.256 214.809 160.62 215.177 160.881 215.672C161.152 216.167 161.287 216.769 161.287 217.478V222H160.027V217.66C160.027 216.895 159.836 216.311 159.453 215.91C159.07 215.499 158.548 215.294 157.885 215.294C157.213 215.294 156.676 215.504 156.275 215.924C155.883 216.344 155.687 216.955 155.687 217.758V222H154.413V211.64H155.687V215.42C155.939 215.028 156.284 214.725 156.723 214.51C157.171 214.295 157.67 214.188 158.221 214.188ZM162.892 218.136C162.892 217.352 163.051 216.666 163.368 216.078C163.685 215.481 164.119 215.019 164.67 214.692C165.23 214.365 165.851 214.202 166.532 214.202C167.204 214.202 167.787 214.347 168.282 214.636C168.777 214.925 169.145 215.289 169.388 215.728V214.328H170.676V222H169.388V220.572C169.136 221.02 168.758 221.393 168.254 221.692C167.759 221.981 167.181 222.126 166.518 222.126C165.837 222.126 165.221 221.958 164.67 221.622C164.119 221.286 163.685 220.815 163.368 220.208C163.051 219.601 162.892 218.911 162.892 218.136ZM169.388 218.15C169.388 217.571 169.271 217.067 169.038 216.638C168.805 216.209 168.487 215.882 168.086 215.658C167.694 215.425 167.26 215.308 166.784 215.308C166.308 215.308 165.874 215.42 165.482 215.644C165.09 215.868 164.777 216.195 164.544 216.624C164.311 217.053 164.194 217.557 164.194 218.136C164.194 218.724 164.311 219.237 164.544 219.676C164.777 220.105 165.09 220.437 165.482 220.67C165.874 220.894 166.308 221.006 166.784 221.006C167.26 221.006 167.694 220.894 168.086 220.67C168.487 220.437 168.805 220.105 169.038 219.676C169.271 219.237 169.388 218.729 169.388 218.15ZM176.567 214.188C177.5 214.188 178.256 214.473 178.835 215.042C179.414 215.602 179.703 216.414 179.703 217.478V222H178.443V217.66C178.443 216.895 178.252 216.311 177.869 215.91C177.486 215.499 176.964 215.294 176.301 215.294C175.629 215.294 175.092 215.504 174.691 215.924C174.299 216.344 174.103 216.955 174.103 217.758V222H172.829V214.328H174.103V215.42C174.355 215.028 174.696 214.725 175.125 214.51C175.564 214.295 176.044 214.188 176.567 214.188ZM181.308 218.136C181.308 217.352 181.467 216.666 181.784 216.078C182.101 215.481 182.535 215.019 183.086 214.692C183.646 214.365 184.271 214.202 184.962 214.202C185.559 214.202 186.115 214.342 186.628 214.622C187.141 214.893 187.533 215.252 187.804 215.7V211.64H189.092V222H187.804V220.558C187.552 221.015 187.179 221.393 186.684 221.692C186.189 221.981 185.611 222.126 184.948 222.126C184.267 222.126 183.646 221.958 183.086 221.622C182.535 221.286 182.101 220.815 181.784 220.208C181.467 219.601 181.308 218.911 181.308 218.136ZM187.804 218.15C187.804 217.571 187.687 217.067 187.454 216.638C187.221 216.209 186.903 215.882 186.502 215.658C186.11 215.425 185.676 215.308 185.2 215.308C184.724 215.308 184.29 215.42 183.898 215.644C183.506 215.868 183.193 216.195 182.96 216.624C182.727 217.053 182.61 217.557 182.61 218.136C182.61 218.724 182.727 219.237 182.96 219.676C183.193 220.105 183.506 220.437 183.898 220.67C184.29 220.894 184.724 221.006 185.2 221.006C185.676 221.006 186.11 220.894 186.502 220.67C186.903 220.437 187.221 220.105 187.454 219.676C187.687 219.237 187.804 218.729 187.804 218.15ZM201.781 214.328V222H200.507V220.866C200.265 221.258 199.924 221.566 199.485 221.79C199.056 222.005 198.58 222.112 198.057 222.112C197.46 222.112 196.923 221.991 196.447 221.748C195.971 221.496 195.593 221.123 195.313 220.628C195.043 220.133 194.907 219.531 194.907 218.822V214.328H196.167V218.654C196.167 219.41 196.359 219.993 196.741 220.404C197.124 220.805 197.647 221.006 198.309 221.006C198.991 221.006 199.527 220.796 199.919 220.376C200.311 219.956 200.507 219.345 200.507 218.542V214.328H201.781ZM206.648 222.126C206.06 222.126 205.533 222.028 205.066 221.832C204.6 221.627 204.231 221.347 203.96 220.992C203.69 220.628 203.54 220.213 203.512 219.746H204.828C204.866 220.129 205.043 220.441 205.36 220.684C205.687 220.927 206.112 221.048 206.634 221.048C207.12 221.048 207.502 220.941 207.782 220.726C208.062 220.511 208.202 220.241 208.202 219.914C208.202 219.578 208.053 219.331 207.754 219.172C207.456 219.004 206.994 218.841 206.368 218.682C205.799 218.533 205.332 218.383 204.968 218.234C204.614 218.075 204.306 217.847 204.044 217.548C203.792 217.24 203.666 216.839 203.666 216.344C203.666 215.952 203.783 215.593 204.016 215.266C204.25 214.939 204.581 214.683 205.01 214.496C205.44 214.3 205.93 214.202 206.48 214.202C207.33 214.202 208.016 214.417 208.538 214.846C209.061 215.275 209.341 215.863 209.378 216.61H208.104C208.076 216.209 207.913 215.887 207.614 215.644C207.325 215.401 206.933 215.28 206.438 215.28C205.981 215.28 205.617 215.378 205.346 215.574C205.076 215.77 204.94 216.027 204.94 216.344C204.94 216.596 205.02 216.806 205.178 216.974C205.346 217.133 205.552 217.263 205.794 217.366C206.046 217.459 206.392 217.567 206.83 217.688C207.381 217.837 207.829 217.987 208.174 218.136C208.52 218.276 208.814 218.491 209.056 218.78C209.308 219.069 209.439 219.447 209.448 219.914C209.448 220.334 209.332 220.712 209.098 221.048C208.865 221.384 208.534 221.65 208.104 221.846C207.684 222.033 207.199 222.126 206.648 222.126ZM211.905 213.082C211.662 213.082 211.457 212.998 211.289 212.83C211.121 212.662 211.037 212.457 211.037 212.214C211.037 211.971 211.121 211.766 211.289 211.598C211.457 211.43 211.662 211.346 211.905 211.346C212.138 211.346 212.334 211.43 212.493 211.598C212.661 211.766 212.745 211.971 212.745 212.214C212.745 212.457 212.661 212.662 212.493 212.83C212.334 212.998 212.138 213.082 211.905 213.082ZM212.521 214.328V222H211.247V214.328H212.521ZM218.43 214.188C219.364 214.188 220.12 214.473 220.698 215.042C221.277 215.602 221.566 216.414 221.566 217.478V222H220.306V217.66C220.306 216.895 220.115 216.311 219.732 215.91C219.35 215.499 218.827 215.294 218.164 215.294C217.492 215.294 216.956 215.504 216.554 215.924C216.162 216.344 215.966 216.955 215.966 217.758V222H214.692V214.328H215.966V215.42C216.218 215.028 216.559 214.725 216.988 214.51C217.427 214.295 217.908 214.188 218.43 214.188ZM226.811 214.202C227.474 214.202 228.053 214.347 228.547 214.636C229.051 214.925 229.425 215.289 229.667 215.728V214.328H230.955V222.168C230.955 222.868 230.806 223.489 230.507 224.03C230.209 224.581 229.779 225.01 229.219 225.318C228.669 225.626 228.025 225.78 227.287 225.78C226.279 225.78 225.439 225.542 224.767 225.066C224.095 224.59 223.699 223.941 223.577 223.12H224.837C224.977 223.587 225.267 223.96 225.705 224.24C226.144 224.529 226.671 224.674 227.287 224.674C227.987 224.674 228.557 224.455 228.995 224.016C229.443 223.577 229.667 222.961 229.667 222.168V220.558C229.415 221.006 229.042 221.379 228.547 221.678C228.053 221.977 227.474 222.126 226.811 222.126C226.13 222.126 225.509 221.958 224.949 221.622C224.399 221.286 223.965 220.815 223.647 220.208C223.33 219.601 223.171 218.911 223.171 218.136C223.171 217.352 223.33 216.666 223.647 216.078C223.965 215.481 224.399 215.019 224.949 214.692C225.509 214.365 226.13 214.202 226.811 214.202ZM229.667 218.15C229.667 217.571 229.551 217.067 229.317 216.638C229.084 216.209 228.767 215.882 228.365 215.658C227.973 215.425 227.539 215.308 227.063 215.308C226.587 215.308 226.153 215.42 225.761 215.644C225.369 215.868 225.057 216.195 224.823 216.624C224.59 217.053 224.473 217.557 224.473 218.136C224.473 218.724 224.59 219.237 224.823 219.676C225.057 220.105 225.369 220.437 225.761 220.67C226.153 220.894 226.587 221.006 227.063 221.006C227.539 221.006 227.973 220.894 228.365 220.67C228.767 220.437 229.084 220.105 229.317 219.676C229.551 219.237 229.667 218.729 229.667 218.15ZM238.395 215.378V219.9C238.395 220.273 238.474 220.539 238.633 220.698C238.791 220.847 239.067 220.922 239.459 220.922H240.397V222H239.249C238.539 222 238.007 221.837 237.653 221.51C237.298 221.183 237.121 220.647 237.121 219.9V215.378H236.127V214.328H237.121V212.396H238.395V214.328H240.397V215.378H238.395ZM245.748 214.188C246.327 214.188 246.85 214.314 247.316 214.566C247.783 214.809 248.147 215.177 248.408 215.672C248.679 216.167 248.814 216.769 248.814 217.478V222H247.554V217.66C247.554 216.895 247.363 216.311 246.98 215.91C246.598 215.499 246.075 215.294 245.412 215.294C244.74 215.294 244.204 215.504 243.802 215.924C243.41 216.344 243.214 216.955 243.214 217.758V222H241.94V211.64H243.214V215.42C243.466 215.028 243.812 214.725 244.25 214.51C244.698 214.295 245.198 214.188 245.748 214.188ZM257.895 217.87C257.895 218.113 257.881 218.369 257.853 218.64H251.721C251.768 219.396 252.025 219.989 252.491 220.418C252.967 220.838 253.541 221.048 254.213 221.048C254.764 221.048 255.221 220.922 255.585 220.67C255.959 220.409 256.22 220.063 256.369 219.634H257.741C257.536 220.371 257.125 220.973 256.509 221.44C255.893 221.897 255.128 222.126 254.213 222.126C253.485 222.126 252.832 221.963 252.253 221.636C251.684 221.309 251.236 220.847 250.909 220.25C250.583 219.643 250.419 218.943 250.419 218.15C250.419 217.357 250.578 216.661 250.895 216.064C251.213 215.467 251.656 215.009 252.225 214.692C252.804 214.365 253.467 214.202 254.213 214.202C254.941 214.202 255.585 214.361 256.145 214.678C256.705 214.995 257.135 215.434 257.433 215.994C257.741 216.545 257.895 217.17 257.895 217.87ZM256.579 217.604C256.579 217.119 256.472 216.703 256.257 216.358C256.043 216.003 255.749 215.737 255.375 215.56C255.011 215.373 254.605 215.28 254.157 215.28C253.513 215.28 252.963 215.485 252.505 215.896C252.057 216.307 251.801 216.876 251.735 217.604H256.579ZM81.3963 240.378H79.7863V247H78.5123V240.378H77.5183V239.328H78.5123V238.782C78.5123 237.923 78.7316 237.298 79.1703 236.906C79.6183 236.505 80.3323 236.304 81.3123 236.304V237.368C80.7523 237.368 80.3556 237.48 80.1223 237.704C79.8983 237.919 79.7863 238.278 79.7863 238.782V239.328H81.3963V240.378ZM84.1557 240.574C84.3797 240.135 84.697 239.795 85.1077 239.552C85.5277 239.309 86.0364 239.188 86.6337 239.188V240.504H86.2977C84.8697 240.504 84.1557 241.279 84.1557 242.828V247H82.8817V239.328H84.1557V240.574ZM95.1044 242.87C95.1044 243.113 95.0904 243.369 95.0624 243.64H88.9304C88.977 244.396 89.2337 244.989 89.7004 245.418C90.1764 245.838 90.7504 246.048 91.4224 246.048C91.973 246.048 92.4304 245.922 92.7944 245.67C93.1677 245.409 93.429 245.063 93.5784 244.634H94.9504C94.745 245.371 94.3344 245.973 93.7184 246.44C93.1024 246.897 92.337 247.126 91.4224 247.126C90.6944 247.126 90.041 246.963 89.4624 246.636C88.893 246.309 88.445 245.847 88.1184 245.25C87.7917 244.643 87.6284 243.943 87.6284 243.15C87.6284 242.357 87.787 241.661 88.1044 241.064C88.4217 240.467 88.865 240.009 89.4344 239.692C90.013 239.365 90.6757 239.202 91.4224 239.202C92.1504 239.202 92.7944 239.361 93.3544 239.678C93.9144 239.995 94.3437 240.434 94.6424 240.994C94.9504 241.545 95.1044 242.17 95.1044 242.87ZM93.7884 242.604C93.7884 242.119 93.681 241.703 93.4664 241.358C93.2517 241.003 92.9577 240.737 92.5844 240.56C92.2204 240.373 91.8144 240.28 91.3664 240.28C90.7224 240.28 90.1717 240.485 89.7144 240.896C89.2664 241.307 89.0097 241.876 88.9444 242.604H93.7884ZM99.502 247.126C98.914 247.126 98.3867 247.028 97.92 246.832C97.4533 246.627 97.0847 246.347 96.814 245.992C96.5433 245.628 96.394 245.213 96.366 244.746H97.682C97.7193 245.129 97.8967 245.441 98.214 245.684C98.5407 245.927 98.9653 246.048 99.488 246.048C99.9733 246.048 100.356 245.941 100.636 245.726C100.916 245.511 101.056 245.241 101.056 244.914C101.056 244.578 100.907 244.331 100.608 244.172C100.309 244.004 99.8473 243.841 99.222 243.682C98.6527 243.533 98.186 243.383 97.822 243.234C97.4673 243.075 97.1593 242.847 96.898 242.548C96.646 242.24 96.52 241.839 96.52 241.344C96.52 240.952 96.6367 240.593 96.87 240.266C97.1033 239.939 97.4347 239.683 97.864 239.496C98.2933 239.3 98.7833 239.202 99.334 239.202C100.183 239.202 100.869 239.417 101.392 239.846C101.915 240.275 102.195 240.863 102.232 241.61H100.958C100.93 241.209 100.767 240.887 100.468 240.644C100.179 240.401 99.7867 240.28 99.292 240.28C98.8347 240.28 98.4707 240.378 98.2 240.574C97.9293 240.77 97.794 241.027 97.794 241.344C97.794 241.596 97.8733 241.806 98.032 241.974C98.2 242.133 98.4053 242.263 98.648 242.366C98.9 242.459 99.2453 242.567 99.684 242.688C100.235 242.837 100.683 242.987 101.028 243.136C101.373 243.276 101.667 243.491 101.91 243.78C102.162 244.069 102.293 244.447 102.302 244.914C102.302 245.334 102.185 245.712 101.952 246.048C101.719 246.384 101.387 246.65 100.958 246.846C100.538 247.033 100.053 247.126 99.502 247.126ZM107.838 239.188C108.772 239.188 109.528 239.473 110.106 240.042C110.685 240.602 110.974 241.414 110.974 242.478V247H109.714V242.66C109.714 241.895 109.523 241.311 109.14 240.91C108.758 240.499 108.235 240.294 107.572 240.294C106.9 240.294 106.364 240.504 105.962 240.924C105.57 241.344 105.374 241.955 105.374 242.758V247H104.1V239.328H105.374V240.42C105.626 240.028 105.967 239.725 106.396 239.51C106.835 239.295 107.316 239.188 107.838 239.188ZM120.056 242.87C120.056 243.113 120.042 243.369 120.014 243.64H113.882C113.928 244.396 114.185 244.989 114.652 245.418C115.128 245.838 115.702 246.048 116.374 246.048C116.924 246.048 117.382 245.922 117.746 245.67C118.119 245.409 118.38 245.063 118.53 244.634H119.902C119.696 245.371 119.286 245.973 118.67 246.44C118.054 246.897 117.288 247.126 116.374 247.126C115.646 247.126 114.992 246.963 114.414 246.636C113.844 246.309 113.396 245.847 113.07 245.25C112.743 244.643 112.58 243.943 112.58 243.15C112.58 242.357 112.738 241.661 113.056 241.064C113.373 240.467 113.816 240.009 114.386 239.692C114.964 239.365 115.627 239.202 116.374 239.202C117.102 239.202 117.746 239.361 118.306 239.678C118.866 239.995 119.295 240.434 119.594 240.994C119.902 241.545 120.056 242.17 120.056 242.87ZM118.74 242.604C118.74 242.119 118.632 241.703 118.418 241.358C118.203 241.003 117.909 240.737 117.536 240.56C117.172 240.373 116.766 240.28 116.318 240.28C115.674 240.28 115.123 240.485 114.666 240.896C114.218 241.307 113.961 241.876 113.896 242.604H118.74ZM124.453 247.126C123.865 247.126 123.338 247.028 122.871 246.832C122.405 246.627 122.036 246.347 121.765 245.992C121.495 245.628 121.345 245.213 121.317 244.746H122.633C122.671 245.129 122.848 245.441 123.165 245.684C123.492 245.927 123.917 246.048 124.439 246.048C124.925 246.048 125.307 245.941 125.587 245.726C125.867 245.511 126.007 245.241 126.007 244.914C126.007 244.578 125.858 244.331 125.559 244.172C125.261 244.004 124.799 243.841 124.173 243.682C123.604 243.533 123.137 243.383 122.773 243.234C122.419 243.075 122.111 242.847 121.849 242.548C121.597 242.24 121.471 241.839 121.471 241.344C121.471 240.952 121.588 240.593 121.821 240.266C122.055 239.939 122.386 239.683 122.815 239.496C123.245 239.3 123.735 239.202 124.285 239.202C125.135 239.202 125.821 239.417 126.343 239.846C126.866 240.275 127.146 240.863 127.183 241.61H125.909C125.881 241.209 125.718 240.887 125.419 240.644C125.13 240.401 124.738 240.28 124.243 240.28C123.786 240.28 123.422 240.378 123.151 240.574C122.881 240.77 122.745 241.027 122.745 241.344C122.745 241.596 122.825 241.806 122.983 241.974C123.151 242.133 123.357 242.263 123.599 242.366C123.851 242.459 124.197 242.567 124.635 242.688C125.186 242.837 125.634 242.987 125.979 243.136C126.325 243.276 126.619 243.491 126.861 243.78C127.113 244.069 127.244 244.447 127.253 244.914C127.253 245.334 127.137 245.712 126.903 246.048C126.67 246.384 126.339 246.65 125.909 246.846C125.489 247.033 125.004 247.126 124.453 247.126ZM131.768 247.126C131.18 247.126 130.652 247.028 130.186 246.832C129.719 246.627 129.35 246.347 129.08 245.992C128.809 245.628 128.66 245.213 128.632 244.746H129.948C129.985 245.129 130.162 245.441 130.48 245.684C130.806 245.927 131.231 246.048 131.754 246.048C132.239 246.048 132.622 245.941 132.902 245.726C133.182 245.511 133.322 245.241 133.322 244.914C133.322 244.578 133.172 244.331 132.874 244.172C132.575 244.004 132.113 243.841 131.488 243.682C130.918 243.533 130.452 243.383 130.088 243.234C129.733 243.075 129.425 242.847 129.164 242.548C128.912 242.24 128.786 241.839 128.786 241.344C128.786 240.952 128.902 240.593 129.136 240.266C129.369 239.939 129.7 239.683 130.13 239.496C130.559 239.3 131.049 239.202 131.6 239.202C132.449 239.202 133.135 239.417 133.658 239.846C134.18 240.275 134.46 240.863 134.498 241.61H133.224C133.196 241.209 133.032 240.887 132.734 240.644C132.444 240.401 132.052 240.28 131.558 240.28C131.1 240.28 130.736 240.378 130.466 240.574C130.195 240.77 130.06 241.027 130.06 241.344C130.06 241.596 130.139 241.806 130.298 241.974C130.466 242.133 130.671 242.263 130.914 242.366C131.166 242.459 131.511 242.567 131.95 242.688C132.5 242.837 132.948 242.987 133.294 243.136C133.639 243.276 133.933 243.491 134.176 243.78C134.428 244.069 134.558 244.447 134.568 244.914C134.568 245.334 134.451 245.712 134.218 246.048C133.984 246.384 133.653 246.65 133.224 246.846C132.804 247.033 132.318 247.126 131.768 247.126ZM143.445 247.126C142.726 247.126 142.073 246.963 141.485 246.636C140.906 246.309 140.449 245.847 140.113 245.25C139.786 244.643 139.623 243.943 139.623 243.15C139.623 242.366 139.791 241.675 140.127 241.078C140.472 240.471 140.939 240.009 141.527 239.692C142.115 239.365 142.773 239.202 143.501 239.202C144.229 239.202 144.887 239.365 145.475 239.692C146.063 240.009 146.525 240.467 146.861 241.064C147.206 241.661 147.379 242.357 147.379 243.15C147.379 243.943 147.201 244.643 146.847 245.25C146.501 245.847 146.03 246.309 145.433 246.636C144.835 246.963 144.173 247.126 143.445 247.126ZM143.445 246.006C143.902 246.006 144.331 245.899 144.733 245.684C145.134 245.469 145.456 245.147 145.699 244.718C145.951 244.289 146.077 243.766 146.077 243.15C146.077 242.534 145.955 242.011 145.713 241.582C145.47 241.153 145.153 240.835 144.761 240.63C144.369 240.415 143.944 240.308 143.487 240.308C143.02 240.308 142.591 240.415 142.199 240.63C141.816 240.835 141.508 241.153 141.275 241.582C141.041 242.011 140.925 242.534 140.925 243.15C140.925 243.775 141.037 244.303 141.261 244.732C141.494 245.161 141.802 245.483 142.185 245.698C142.567 245.903 142.987 246.006 143.445 246.006ZM152.176 240.378H150.566V247H149.292V240.378H148.298V239.328H149.292V238.782C149.292 237.923 149.511 237.298 149.95 236.906C150.398 236.505 151.112 236.304 152.092 236.304V237.368C151.532 237.368 151.135 237.48 150.902 237.704C150.678 237.919 150.566 238.278 150.566 238.782V239.328H152.176V240.378ZM160.557 239.202C161.22 239.202 161.799 239.347 162.293 239.636C162.797 239.925 163.171 240.289 163.413 240.728V239.328H164.701V247.168C164.701 247.868 164.552 248.489 164.253 249.03C163.955 249.581 163.525 250.01 162.965 250.318C162.415 250.626 161.771 250.78 161.033 250.78C160.025 250.78 159.185 250.542 158.513 250.066C157.841 249.59 157.445 248.941 157.323 248.12H158.583C158.723 248.587 159.013 248.96 159.451 249.24C159.89 249.529 160.417 249.674 161.033 249.674C161.733 249.674 162.303 249.455 162.741 249.016C163.189 248.577 163.413 247.961 163.413 247.168V245.558C163.161 246.006 162.788 246.379 162.293 246.678C161.799 246.977 161.22 247.126 160.557 247.126C159.876 247.126 159.255 246.958 158.695 246.622C158.145 246.286 157.711 245.815 157.393 245.208C157.076 244.601 156.917 243.911 156.917 243.136C156.917 242.352 157.076 241.666 157.393 241.078C157.711 240.481 158.145 240.019 158.695 239.692C159.255 239.365 159.876 239.202 160.557 239.202ZM163.413 243.15C163.413 242.571 163.297 242.067 163.063 241.638C162.83 241.209 162.513 240.882 162.111 240.658C161.719 240.425 161.285 240.308 160.809 240.308C160.333 240.308 159.899 240.42 159.507 240.644C159.115 240.868 158.803 241.195 158.569 241.624C158.336 242.053 158.219 242.557 158.219 243.136C158.219 243.724 158.336 244.237 158.569 244.676C158.803 245.105 159.115 245.437 159.507 245.67C159.899 245.894 160.333 246.006 160.809 246.006C161.285 246.006 161.719 245.894 162.111 245.67C162.513 245.437 162.83 245.105 163.063 244.676C163.297 244.237 163.413 243.729 163.413 243.15ZM168.128 240.574C168.352 240.135 168.67 239.795 169.08 239.552C169.5 239.309 170.009 239.188 170.606 239.188V240.504H170.27C168.842 240.504 168.128 241.279 168.128 242.828V247H166.854V239.328H168.128V240.574ZM175.423 247.126C174.704 247.126 174.051 246.963 173.463 246.636C172.884 246.309 172.427 245.847 172.091 245.25C171.764 244.643 171.601 243.943 171.601 243.15C171.601 242.366 171.769 241.675 172.105 241.078C172.45 240.471 172.917 240.009 173.505 239.692C174.093 239.365 174.751 239.202 175.479 239.202C176.207 239.202 176.865 239.365 177.453 239.692C178.041 240.009 178.503 240.467 178.839 241.064C179.184 241.661 179.357 242.357 179.357 243.15C179.357 243.943 179.18 244.643 178.825 245.25C178.48 245.847 178.008 246.309 177.411 246.636C176.814 246.963 176.151 247.126 175.423 247.126ZM175.423 246.006C175.88 246.006 176.31 245.899 176.711 245.684C177.112 245.469 177.434 245.147 177.677 244.718C177.929 244.289 178.055 243.766 178.055 243.15C178.055 242.534 177.934 242.011 177.691 241.582C177.448 241.153 177.131 240.835 176.739 240.63C176.347 240.415 175.922 240.308 175.465 240.308C174.998 240.308 174.569 240.415 174.177 240.63C173.794 240.835 173.486 241.153 173.253 241.582C173.02 242.011 172.903 242.534 172.903 243.15C172.903 243.775 173.015 244.303 173.239 244.732C173.472 245.161 173.78 245.483 174.163 245.698C174.546 245.903 174.966 246.006 175.423 246.006ZM180.556 243.15C180.556 242.357 180.715 241.666 181.032 241.078C181.349 240.481 181.788 240.019 182.348 239.692C182.917 239.365 183.566 239.202 184.294 239.202C185.237 239.202 186.011 239.431 186.618 239.888C187.234 240.345 187.64 240.98 187.836 241.792H186.464C186.333 241.325 186.077 240.957 185.694 240.686C185.321 240.415 184.854 240.28 184.294 240.28C183.566 240.28 182.978 240.532 182.53 241.036C182.082 241.531 181.858 242.235 181.858 243.15C181.858 244.074 182.082 244.788 182.53 245.292C182.978 245.796 183.566 246.048 184.294 246.048C184.854 246.048 185.321 245.917 185.694 245.656C186.067 245.395 186.324 245.021 186.464 244.536H187.836C187.631 245.32 187.22 245.95 186.604 246.426C185.988 246.893 185.218 247.126 184.294 247.126C183.566 247.126 182.917 246.963 182.348 246.636C181.788 246.309 181.349 245.847 181.032 245.25C180.715 244.653 180.556 243.953 180.556 243.15ZM196.536 242.87C196.536 243.113 196.522 243.369 196.494 243.64H190.362C190.409 244.396 190.665 244.989 191.132 245.418C191.608 245.838 192.182 246.048 192.854 246.048C193.405 246.048 193.862 245.922 194.226 245.67C194.599 245.409 194.861 245.063 195.01 244.634H196.382C196.177 245.371 195.766 245.973 195.15 246.44C194.534 246.897 193.769 247.126 192.854 247.126C192.126 247.126 191.473 246.963 190.894 246.636C190.325 246.309 189.877 245.847 189.55 245.25C189.223 244.643 189.06 243.943 189.06 243.15C189.06 242.357 189.219 241.661 189.536 241.064C189.853 240.467 190.297 240.009 190.866 239.692C191.445 239.365 192.107 239.202 192.854 239.202C193.582 239.202 194.226 239.361 194.786 239.678C195.346 239.995 195.775 240.434 196.074 240.994C196.382 241.545 196.536 242.17 196.536 242.87ZM195.22 242.604C195.22 242.119 195.113 241.703 194.898 241.358C194.683 241.003 194.389 240.737 194.016 240.56C193.652 240.373 193.246 240.28 192.798 240.28C192.154 240.28 191.603 240.485 191.146 240.896C190.698 241.307 190.441 241.876 190.376 242.604H195.22ZM199.492 240.574C199.716 240.135 200.033 239.795 200.444 239.552C200.864 239.309 201.372 239.188 201.97 239.188V240.504H201.634C200.206 240.504 199.492 241.279 199.492 242.828V247H198.218V239.328H199.492V240.574ZM204.098 238.082C203.856 238.082 203.65 237.998 203.482 237.83C203.314 237.662 203.23 237.457 203.23 237.214C203.23 236.971 203.314 236.766 203.482 236.598C203.65 236.43 203.856 236.346 204.098 236.346C204.332 236.346 204.528 236.43 204.686 236.598C204.854 236.766 204.938 236.971 204.938 237.214C204.938 237.457 204.854 237.662 204.686 237.83C204.528 237.998 204.332 238.082 204.098 238.082ZM204.714 239.328V247H203.44V239.328H204.714ZM213.886 242.87C213.886 243.113 213.872 243.369 213.844 243.64H207.712C207.758 244.396 208.015 244.989 208.482 245.418C208.958 245.838 209.532 246.048 210.204 246.048C210.754 246.048 211.212 245.922 211.576 245.67C211.949 245.409 212.21 245.063 212.36 244.634H213.732C213.526 245.371 213.116 245.973 212.5 246.44C211.884 246.897 211.118 247.126 210.204 247.126C209.476 247.126 208.822 246.963 208.244 246.636C207.674 246.309 207.226 245.847 206.9 245.25C206.573 244.643 206.41 243.943 206.41 243.15C206.41 242.357 206.568 241.661 206.886 241.064C207.203 240.467 207.646 240.009 208.216 239.692C208.794 239.365 209.457 239.202 210.204 239.202C210.932 239.202 211.576 239.361 212.136 239.678C212.696 239.995 213.125 240.434 213.424 240.994C213.732 241.545 213.886 242.17 213.886 242.87ZM212.57 242.604C212.57 242.119 212.462 241.703 212.248 241.358C212.033 241.003 211.739 240.737 211.366 240.56C211.002 240.373 210.596 240.28 210.148 240.28C209.504 240.28 208.953 240.485 208.496 240.896C208.048 241.307 207.791 241.876 207.726 242.604H212.57ZM218.283 247.126C217.695 247.126 217.168 247.028 216.701 246.832C216.235 246.627 215.866 246.347 215.595 245.992C215.325 245.628 215.175 245.213 215.147 244.746H216.463C216.501 245.129 216.678 245.441 216.995 245.684C217.322 245.927 217.747 246.048 218.269 246.048C218.755 246.048 219.137 245.941 219.417 245.726C219.697 245.511 219.837 245.241 219.837 244.914C219.837 244.578 219.688 244.331 219.389 244.172C219.091 244.004 218.629 243.841 218.003 243.682C217.434 243.533 216.967 243.383 216.603 243.234C216.249 243.075 215.941 242.847 215.679 242.548C215.427 242.24 215.301 241.839 215.301 241.344C215.301 240.952 215.418 240.593 215.651 240.266C215.885 239.939 216.216 239.683 216.645 239.496C217.075 239.3 217.565 239.202 218.115 239.202C218.965 239.202 219.651 239.417 220.173 239.846C220.696 240.275 220.976 240.863 221.013 241.61H219.739C219.711 241.209 219.548 240.887 219.249 240.644C218.96 240.401 218.568 240.28 218.073 240.28C217.616 240.28 217.252 240.378 216.981 240.574C216.711 240.77 216.575 241.027 216.575 241.344C216.575 241.596 216.655 241.806 216.813 241.974C216.981 242.133 217.187 242.263 217.429 242.366C217.681 242.459 218.027 242.567 218.465 242.688C219.016 242.837 219.464 242.987 219.809 243.136C220.155 243.276 220.449 243.491 220.691 243.78C220.943 244.069 221.074 244.447 221.083 244.914C221.083 245.334 220.967 245.712 220.733 246.048C220.5 246.384 220.169 246.65 219.739 246.846C219.319 247.033 218.834 247.126 218.283 247.126Z" fill="#676767"/>
<path d="M87.3132 165.987V168.473H80.9112V172.411H85.8172V174.853H80.9112V181.343H77.8312V165.987H87.3132ZM92.3572 171.047C92.7532 170.401 93.2665 169.895 93.8972 169.529C94.5425 169.162 95.2758 168.979 96.0972 168.979V172.213H95.2832C94.3152 172.213 93.5818 172.44 93.0832 172.895C92.5992 173.349 92.3572 174.141 92.3572 175.271V181.343H89.2772V169.155H92.3572V171.047ZM109.282 174.985C109.282 175.425 109.252 175.821 109.194 176.173H100.284C100.357 177.053 100.665 177.742 101.208 178.241C101.75 178.739 102.418 178.989 103.21 178.989C104.354 178.989 105.168 178.497 105.652 177.515H108.974C108.622 178.688 107.947 179.656 106.95 180.419C105.952 181.167 104.728 181.541 103.276 181.541C102.102 181.541 101.046 181.284 100.108 180.771C99.1837 180.243 98.4577 179.502 97.9297 178.549C97.4164 177.595 97.1597 176.495 97.1597 175.249C97.1597 173.987 97.4164 172.88 97.9297 171.927C98.443 170.973 99.1617 170.24 100.086 169.727C101.01 169.213 102.073 168.957 103.276 168.957C104.434 168.957 105.468 169.206 106.378 169.705C107.302 170.203 108.013 170.915 108.512 171.839C109.025 172.748 109.282 173.797 109.282 174.985ZM106.092 174.105C106.077 173.313 105.791 172.682 105.234 172.213C104.676 171.729 103.994 171.487 103.188 171.487C102.425 171.487 101.78 171.721 101.252 172.191C100.738 172.645 100.423 173.283 100.306 174.105H106.092ZM122.64 174.985C122.64 175.425 122.611 175.821 122.552 176.173H113.642C113.715 177.053 114.023 177.742 114.566 178.241C115.109 178.739 115.776 178.989 116.568 178.989C117.712 178.989 118.526 178.497 119.01 177.515H122.332C121.98 178.688 121.305 179.656 120.308 180.419C119.311 181.167 118.086 181.541 116.634 181.541C115.461 181.541 114.405 181.284 113.466 180.771C112.542 180.243 111.816 179.502 111.288 178.549C110.775 177.595 110.518 176.495 110.518 175.249C110.518 173.987 110.775 172.88 111.288 171.927C111.801 170.973 112.52 170.24 113.444 169.727C114.368 169.213 115.431 168.957 116.634 168.957C117.793 168.957 118.827 169.206 119.736 169.705C120.66 170.203 121.371 170.915 121.87 171.839C122.383 172.748 122.64 173.797 122.64 174.985ZM119.45 174.105C119.435 173.313 119.149 172.682 118.592 172.213C118.035 171.729 117.353 171.487 116.546 171.487C115.783 171.487 115.138 171.721 114.61 172.191C114.097 172.645 113.781 173.283 113.664 174.105H119.45ZM134.354 181.541C133.357 181.541 132.462 181.365 131.67 181.013C130.878 180.646 130.247 180.155 129.778 179.539C129.323 178.923 129.074 178.241 129.03 177.493H132.132C132.191 177.962 132.418 178.351 132.814 178.659C133.225 178.967 133.731 179.121 134.332 179.121C134.919 179.121 135.373 179.003 135.696 178.769C136.033 178.534 136.202 178.233 136.202 177.867C136.202 177.471 135.997 177.177 135.586 176.987C135.19 176.781 134.552 176.561 133.672 176.327C132.763 176.107 132.015 175.879 131.428 175.645C130.856 175.41 130.357 175.051 129.932 174.567C129.521 174.083 129.316 173.43 129.316 172.609C129.316 171.934 129.507 171.318 129.888 170.761C130.284 170.203 130.841 169.763 131.56 169.441C132.293 169.118 133.151 168.957 134.134 168.957C135.586 168.957 136.745 169.323 137.61 170.057C138.475 170.775 138.952 171.751 139.04 172.983H136.092C136.048 172.499 135.843 172.117 135.476 171.839C135.124 171.545 134.647 171.399 134.046 171.399C133.489 171.399 133.056 171.501 132.748 171.707C132.455 171.912 132.308 172.198 132.308 172.565C132.308 172.975 132.513 173.291 132.924 173.511C133.335 173.716 133.973 173.929 134.838 174.149C135.718 174.369 136.444 174.596 137.016 174.831C137.588 175.065 138.079 175.432 138.49 175.931C138.915 176.415 139.135 177.06 139.15 177.867C139.15 178.571 138.952 179.201 138.556 179.759C138.175 180.316 137.617 180.756 136.884 181.079C136.165 181.387 135.322 181.541 134.354 181.541ZM148.322 168.979C149.246 168.979 150.068 169.184 150.786 169.595C151.505 169.991 152.062 170.585 152.458 171.377C152.869 172.154 153.074 173.093 153.074 174.193V181.343H149.994V174.611C149.994 173.643 149.752 172.902 149.268 172.389C148.784 171.861 148.124 171.597 147.288 171.597C146.438 171.597 145.763 171.861 145.264 172.389C144.78 172.902 144.538 173.643 144.538 174.611V181.343H141.458V165.063H144.538V170.673C144.934 170.145 145.462 169.734 146.122 169.441C146.782 169.133 147.516 168.979 148.322 168.979ZM157.345 167.703C156.803 167.703 156.348 167.534 155.981 167.197C155.629 166.845 155.453 166.412 155.453 165.899C155.453 165.385 155.629 164.96 155.981 164.623C156.348 164.271 156.803 164.095 157.345 164.095C157.888 164.095 158.335 164.271 158.687 164.623C159.054 164.96 159.237 165.385 159.237 165.899C159.237 166.412 159.054 166.845 158.687 167.197C158.335 167.534 157.888 167.703 157.345 167.703ZM158.863 169.155V181.343H155.783V169.155H158.863ZM164.766 170.915C165.162 170.357 165.705 169.895 166.394 169.529C167.098 169.147 167.898 168.957 168.792 168.957C169.834 168.957 170.772 169.213 171.608 169.727C172.459 170.24 173.126 170.973 173.61 171.927C174.109 172.865 174.358 173.958 174.358 175.205C174.358 176.451 174.109 177.559 173.61 178.527C173.126 179.48 172.459 180.221 171.608 180.749C170.772 181.277 169.834 181.541 168.792 181.541C167.898 181.541 167.106 181.357 166.416 180.991C165.742 180.624 165.192 180.162 164.766 179.605V187.151H161.686V169.155H164.766V170.915ZM171.212 175.205C171.212 174.471 171.058 173.841 170.75 173.313C170.457 172.77 170.061 172.359 169.562 172.081C169.078 171.802 168.55 171.663 167.978 171.663C167.421 171.663 166.893 171.809 166.394 172.103C165.91 172.381 165.514 172.792 165.206 173.335C164.913 173.877 164.766 174.515 164.766 175.249C164.766 175.982 164.913 176.62 165.206 177.163C165.514 177.705 165.91 178.123 166.394 178.417C166.893 178.695 167.421 178.835 167.978 178.835C168.55 178.835 169.078 178.688 169.562 178.395C170.061 178.101 170.457 177.683 170.75 177.141C171.058 176.598 171.212 175.953 171.212 175.205ZM179.457 170.915C179.853 170.357 180.395 169.895 181.085 169.529C181.789 169.147 182.588 168.957 183.483 168.957C184.524 168.957 185.463 169.213 186.299 169.727C187.149 170.24 187.817 170.973 188.301 171.927C188.799 172.865 189.049 173.958 189.049 175.205C189.049 176.451 188.799 177.559 188.301 178.527C187.817 179.48 187.149 180.221 186.299 180.749C185.463 181.277 184.524 181.541 183.483 181.541C182.588 181.541 181.796 181.357 181.107 180.991C180.432 180.624 179.882 180.162 179.457 179.605V187.151H176.377V169.155H179.457V170.915ZM185.903 175.205C185.903 174.471 185.749 173.841 185.441 173.313C185.147 172.77 184.751 172.359 184.253 172.081C183.769 171.802 183.241 171.663 182.669 171.663C182.111 171.663 181.583 171.809 181.085 172.103C180.601 172.381 180.205 172.792 179.897 173.335C179.603 173.877 179.457 174.515 179.457 175.249C179.457 175.982 179.603 176.62 179.897 177.163C180.205 177.705 180.601 178.123 181.085 178.417C181.583 178.695 182.111 178.835 182.669 178.835C183.241 178.835 183.769 178.688 184.253 178.395C184.751 178.101 185.147 177.683 185.441 177.141C185.749 176.598 185.903 175.953 185.903 175.205ZM192.629 167.703C192.086 167.703 191.631 167.534 191.265 167.197C190.913 166.845 190.737 166.412 190.737 165.899C190.737 165.385 190.913 164.96 191.265 164.623C191.631 164.271 192.086 164.095 192.629 164.095C193.171 164.095 193.619 164.271 193.971 164.623C194.337 164.96 194.521 165.385 194.521 165.899C194.521 166.412 194.337 166.845 193.971 167.197C193.619 167.534 193.171 167.703 192.629 167.703ZM194.147 169.155V181.343H191.067V169.155H194.147ZM203.724 168.979C205.176 168.979 206.349 169.441 207.244 170.365C208.138 171.274 208.586 172.55 208.586 174.193V181.343H205.506V174.611C205.506 173.643 205.264 172.902 204.78 172.389C204.296 171.861 203.636 171.597 202.8 171.597C201.949 171.597 201.274 171.861 200.776 172.389C200.292 172.902 200.05 173.643 200.05 174.611V181.343H196.97V169.155H200.05V170.673C200.46 170.145 200.981 169.734 201.612 169.441C202.257 169.133 202.961 168.979 203.724 168.979ZM216.069 168.957C216.978 168.957 217.777 169.14 218.467 169.507C219.156 169.859 219.699 170.321 220.095 170.893V169.155H223.197V181.431C223.197 182.56 222.969 183.565 222.515 184.445C222.06 185.339 221.378 186.043 220.469 186.557C219.559 187.085 218.459 187.349 217.169 187.349C215.438 187.349 214.015 186.945 212.901 186.139C211.801 185.332 211.177 184.232 211.031 182.839H214.089C214.25 183.396 214.595 183.836 215.123 184.159C215.665 184.496 216.318 184.665 217.081 184.665C217.975 184.665 218.701 184.393 219.259 183.851C219.816 183.323 220.095 182.516 220.095 181.431V179.539C219.699 180.111 219.149 180.587 218.445 180.969C217.755 181.35 216.963 181.541 216.069 181.541C215.042 181.541 214.103 181.277 213.253 180.749C212.402 180.221 211.727 179.48 211.229 178.527C210.745 177.559 210.503 176.451 210.503 175.205C210.503 173.973 210.745 172.88 211.229 171.927C211.727 170.973 212.395 170.24 213.231 169.727C214.081 169.213 215.027 168.957 216.069 168.957ZM220.095 175.249C220.095 174.501 219.948 173.863 219.655 173.335C219.361 172.792 218.965 172.381 218.467 172.103C217.968 171.809 217.433 171.663 216.861 171.663C216.289 171.663 215.761 171.802 215.277 172.081C214.793 172.359 214.397 172.77 214.089 173.313C213.795 173.841 213.649 174.471 213.649 175.205C213.649 175.938 213.795 176.583 214.089 177.141C214.397 177.683 214.793 178.101 215.277 178.395C215.775 178.688 216.303 178.835 216.861 178.835C217.433 178.835 217.968 178.695 218.467 178.417C218.965 178.123 219.361 177.713 219.655 177.185C219.948 176.642 220.095 175.997 220.095 175.249Z" fill="#2E2E2E"/>
<g filter="url(#filter0_d_1_296)">
<path fill-rule="evenodd" clip-rule="evenodd" d="M179.528 92.9009C181.746 92.9009 183.293 91.22 183.293 89.45C183.293 87.6801 181.746 85.9991 179.528 85.9991C177.31 85.9991 175.763 87.6801 175.763 89.45C175.763 91.22 177.31 92.9009 179.528 92.9009ZM179.528 96.0381C183.34 96.0381 186.43 93.0885 186.43 89.45C186.43 85.8115 183.34 82.8619 179.528 82.8619C175.716 82.8619 172.626 85.8115 172.626 89.45C172.626 93.0885 175.716 96.0381 179.528 96.0381Z" fill="url(#paint0_linear_1_296)"/>
<path fill-rule="evenodd" clip-rule="evenodd" d="M136.235 92.9009C138.453 92.9009 139.999 91.22 139.999 89.45C139.999 87.6801 138.453 85.9991 136.235 85.9991C134.016 85.9991 132.47 87.6801 132.47 89.45C132.47 91.22 134.016 92.9009 136.235 92.9009ZM136.235 96.0381C140.046 96.0381 143.136 93.0885 143.136 89.45C143.136 85.8115 140.046 82.8619 136.235 82.8619C132.423 82.8619 129.333 85.8115 129.333 89.45C129.333 93.0885 132.423 96.0381 136.235 96.0381Z" fill="url(#paint1_linear_1_296)"/>
<path fill-rule="evenodd" clip-rule="evenodd" d="M125.358 54C124.057 54 122.972 54.9943 122.858 56.2904L122.563 59.6469H129.333C130.026 59.6469 130.588 60.2088 130.588 60.9018C130.588 61.5948 130.026 62.1567 129.333 62.1567H122.343L122.123 64.6664H126.823C127.516 64.6664 128.078 65.2282 128.078 65.9213C128.078 66.6143 127.516 67.1762 126.823 67.1762H121.903L121.683 69.6859H129.961C130.654 69.6859 131.215 70.2477 131.215 70.9408C131.215 71.6338 130.654 72.1957 129.961 72.1957H121.463L121.243 74.7054H127.451C128.144 74.7054 128.706 75.2672 128.706 75.9603C128.706 76.6533 128.144 77.2151 127.451 77.2151H121.022L120.161 87.0348C120.032 88.5018 121.189 89.7639 122.661 89.7639H128.078C128.078 85.2591 131.73 81.6072 136.235 81.6072C140.74 81.6072 144.392 85.2591 144.392 89.7639H165.327H165.975H171.371C171.371 85.2591 175.023 81.6072 179.528 81.6072C184.033 81.6072 187.685 85.2591 187.685 89.7639H188.509C189.816 89.7639 190.904 88.7609 191.01 87.4583L191.992 75.4347C192.046 74.7672 191.832 74.1056 191.396 73.5972L183.417 64.288C182.94 63.7317 182.244 63.4115 181.511 63.4115H172.25C171.819 63.4115 171.405 63.3013 171.041 63.1012L171.707 56.7725C171.863 55.2906 170.701 54 169.211 54H125.358ZM173.231 65.5835C173.244 65.4201 173.38 65.2939 173.544 65.2939H180.234C180.584 65.2939 180.918 65.4402 181.156 65.6976L187.826 72.924C188.012 73.125 187.869 73.4505 187.596 73.4505H172.965C172.782 73.4505 172.638 73.295 172.652 73.1128L173.231 65.5835ZM141.94 66.2074L142.181 64.8672H136.022L134.17 75.3328H135.886L136.699 70.7099H140.163L140.404 69.3847H136.94L137.498 66.2074H141.94ZM149.78 65.5749C149.238 65.1031 148.44 64.8672 147.386 64.8672H143.772L141.919 75.3328H143.636L144.374 71.1466H145.699L147.356 75.3328H149.403L147.581 70.996C148.435 70.7952 149.107 70.4137 149.599 69.8516C150.101 69.2894 150.412 68.672 150.533 67.9994C150.573 67.7383 150.593 67.5426 150.593 67.4121C150.593 66.6592 150.322 66.0468 149.78 65.5749ZM148.816 67.5627C148.816 67.7032 148.801 67.8488 148.771 67.9994C148.681 68.5515 148.44 68.9882 148.048 69.3095C147.667 69.6307 147.155 69.7913 146.512 69.7913H144.615L145.247 66.2074H147.145C147.707 66.2074 148.124 66.3279 148.395 66.5688C148.676 66.7997 148.816 67.131 148.816 67.5627ZM154.205 69.3697L154.762 66.1923H158.828L159.069 64.8521H153.286L151.434 75.3328H157.216L157.457 73.9926H153.392L153.979 70.6948H157.593L157.819 69.3697H154.205ZM162.102 69.3697L162.659 66.1923H166.725L166.965 64.8521H161.183L159.331 75.3328H165.113L165.354 73.9926H161.288L161.876 70.6948H165.49L165.716 69.3697H162.102Z" fill="url(#paint2_linear_1_296)"/>
<path fill-rule="evenodd" clip-rule="evenodd" d="M116.784 57.1375C116.091 57.1375 115.529 57.6993 115.529 58.3923C115.529 59.0854 116.091 59.6472 116.784 59.6472H131.843C132.536 59.6472 133.097 59.0854 133.097 58.3923C133.097 57.6993 132.536 57.1375 131.843 57.1375H116.784ZM111.765 62.1569C111.072 62.1569 110.51 62.7188 110.51 63.4118C110.51 64.1049 111.072 64.6667 111.765 64.6667H131.843C132.536 64.6667 133.097 64.1049 133.097 63.4118C133.097 62.7188 132.536 62.1569 131.843 62.1569H111.765ZM113.019 68.4313C113.019 67.7383 113.581 67.1764 114.274 67.1764H131.843C132.536 67.1764 133.097 67.7383 133.097 68.4313C133.097 69.1244 132.536 69.6862 131.843 69.6862H114.274C113.581 69.6862 113.019 69.1244 113.019 68.4313ZM109.255 72.1959C108.562 72.1959 108 72.7578 108 73.4508C108 74.1438 108.562 74.7057 109.255 74.7057H131.843C132.536 74.7057 133.097 74.1438 133.097 73.4508C133.097 72.7578 132.536 72.1959 131.843 72.1959H109.255Z" fill="url(#paint3_linear_1_296)"/>
</g>
<defs>
<filter id="filter0_d_1_296" x="78" y="49" width="144" height="102.038" filterUnits="userSpaceOnUse" color-interpolation-filters="sRGB">
<feFlood flood-opacity="0" result="BackgroundImageFix"/>
<feColorMatrix in="SourceAlpha" type="matrix" values="0 0 0 0 0 0 0 0 0 0 0 0 0 0 0 0 0 0 127 0" result="hardAlpha"/>
<feOffset dy="25"/>
<feGaussianBlur stdDeviation="15"/>
<feColorMatrix type="matrix" values="0 0 0 0 0.972549 0 0 0 0 0.262745 0 0 0 0 0.266667 0 0 0 0.1 0"/>
<feBlend mode="normal" in2="BackgroundImageFix" result="effect1_dropShadow_1_296"/>
<feBlend mode="normal" in="SourceGraphic" in2="effect1_dropShadow_1_296" result="shape"/>
</filter>
<linearGradient id="paint0_linear_1_296" x1="179.528" y1="82.8619" x2="179.528" y2="96.0381" gradientUnits="userSpaceOnUse">
<stop stop-color="#FF6162"/>
<stop offset="1" stop-color="#F43435"/>
</linearGradient>
<linearGradient id="paint1_linear_1_296" x1="136.235" y1="82.8619" x2="136.235" y2="96.0381" gradientUnits="userSpaceOnUse">
<stop stop-color="#FF6162"/>
<stop offset="1" stop-color="#F43435"/>
</linearGradient>
<linearGradient id="paint2_linear_1_296" x1="127.878" y1="54" x2="191.038" y2="93.1144" gradientUnits="userSpaceOnUse">
<stop stop-color="#FF6263"/>
<stop offset="1" stop-color="#F43435"/>
</linearGradient>
<linearGradient id="paint3_linear_1_296" x1="110.699" y1="57.1375" x2="137.795" y2="67.3701" gradientUnits="userSpaceOnUse">
<stop stop-color="#F43435"/>
<stop offset="0.458015" stop-color="#FF6364"/>
<stop offset="0.651879" stop-color="#FE5E5E"/>
<stop offset="1" stop-color="#FE5C5D"/>
</linearGradient>
</defs>
</svg>
