<svg width="22" height="21" viewBox="0 0 22 21" fill="none" xmlns="http://www.w3.org/2000/svg">
<path fill-rule="evenodd" clip-rule="evenodd" d="M0.0140753 8.08382C-0.0590997 7.79112 0.162275 7.50757 0.46398 7.50757H21.536C21.8377 7.50757 22.0591 7.79112 21.986 8.08382L19.0593 19.79C18.9561 20.2029 18.5851 20.4926 18.1595 20.4926H3.84044C3.41484 20.4926 3.04385 20.2029 2.94063 19.79L0.0140753 8.08382ZM11.75 11.6251C11.75 11.2109 11.4142 10.8751 11 10.8751C10.5858 10.8751 10.25 11.2109 10.25 11.6251V16.3751C10.25 16.7893 10.5858 17.1251 11 17.1251C11.4142 17.1251 11.75 16.7893 11.75 16.3751V11.6251ZM16.0688 11.0636C16.458 11.2052 16.6588 11.6356 16.517 12.0249L14.8925 16.4884C14.7508 16.8776 14.3204 17.0783 13.9312 16.9366C13.542 16.795 13.3413 16.3646 13.483 15.9754L15.1075 11.5118C15.2492 11.1226 15.6796 10.9219 16.0688 11.0636ZM6.89245 11.5118C6.7508 11.1226 6.3204 10.9219 5.9312 11.0636C5.54195 11.2052 5.34125 11.6356 5.48295 12.0249L7.1075 16.4884C7.2492 16.8776 7.6796 17.0783 8.0688 16.9366C8.45805 16.795 8.65875 16.3646 8.51705 15.9754L6.89245 11.5118Z" fill="#3C3737"/>
<path d="M17.5 8.50003L12.5887 2.07758C11.7882 1.03078 10.2118 1.03078 9.4113 2.07758L4.5 8.50003" stroke="#3C3737" stroke-width="2" stroke-linecap="round" stroke-linejoin="round"/>
</svg>
